<?xml version="1.0" encoding="UTF-8" standalone="no"?>
<svg
   id="Capa_1"
   data-name="Capa 1"
   viewBox="0 0 1302.28 340.00002"
   version="1.1"
   sodipodi:docname="CICAS.svg"
   width="1302.28"
   height="340"
   inkscape:version="1.4 (e7c3feb100, 2024-10-09)"
   xmlns:inkscape="http://www.inkscape.org/namespaces/inkscape"
   xmlns:sodipodi="http://sodipodi.sourceforge.net/DTD/sodipodi-0.dtd"
   xmlns="http://www.w3.org/2000/svg"
   xmlns:svg="http://www.w3.org/2000/svg">
  <sodipodi:namedview
     id="namedview11"
     pagecolor="#ffffff"
     bordercolor="#000000"
     borderopacity="0.25"
     inkscape:showpageshadow="2"
     inkscape:pageopacity="0.0"
     inkscape:pagecheckerboard="0"
     inkscape:deskcolor="#d1d1d1"
     inkscape:zoom="1.2370611"
     inkscape:cx="650.73584"
     inkscape:cy="305.56292"
     inkscape:window-width="1251"
     inkscape:window-height="1195"
     inkscape:window-x="26"
     inkscape:window-y="23"
     inkscape:window-maximized="0"
     inkscape:current-layer="Capa_1" />
  <defs
     id="defs4">
    <style
       id="style1">
      .cls-1 {
        fill: none;
      }

      .cls-2 {
        clip-path: url(#clippath);
      }

      .cls-3 {
        fill: #061b2b;
      }

      .cls-4 {
        fill: url(#Degradado_sin_nombre_2);
      }

      .cls-5 {
        fill: url(#Degradado_sin_nombre_3);
      }
    </style>
    <clipPath
       id="clippath">
      <rect
         class="cls-1"
         x="1035.11"
         width="245.87"
         height="338.35001"
         id="rect1"
         y="0" />
    </clipPath>
    <linearGradient
       id="Degradado_sin_nombre_3"
       data-name="Degradado sin nombre 3"
       x1="1035.11"
       y1="235.49001"
       x2="1281.15"
       y2="235.49001"
       gradientTransform="matrix(1,0,0,-1,0,404.67)"
       gradientUnits="userSpaceOnUse">
      <stop
         offset="0"
         stop-color="#404b5c"
         id="stop1" />
      <stop
         offset="1"
         stop-color="#fff"
         id="stop2" />
    </linearGradient>
    <linearGradient
       id="Degradado_sin_nombre_2"
       data-name="Degradado sin nombre 2"
       x1="1035.11"
       y1="128.07001"
       x2="1257.26"
       y2="128.07001"
       gradientTransform="matrix(1,0,0,-1,0,404.67)"
       gradientUnits="userSpaceOnUse">
      <stop
         offset="0"
         stop-color="#fff"
         id="stop3" />
      <stop
         offset="1"
         stop-color="#061b2b"
         id="stop4" />
    </linearGradient>
  </defs>
  <g
     id="g7">
    <path
       class="cls-3"
       d="M 0,164.01 C 0,75.1 66.04,6.9 157.11,6.9 c 54.81,0 103.15,27.19 129.48,69.92 l -59.56,34.53 C 213.65,88.04 187.75,74.23 157.11,74.23 c -53.52,0 -88.05,35.82 -88.05,89.77 0,53.95 34.53,89.77 88.05,89.77 30.64,0 56.97,-13.81 69.92,-37.12 l 59.56,34.53 C 260.69,293.91 212.35,321.1 157.11,321.1 66.04,321.12 0,252.92 0,164.01 Z"
       id="path4" />
    <path
       class="cls-3"
       d="M 388.01,12.95 V 315.08 H 318.95 V 12.95 Z"
       id="path5" />
    <path
       class="cls-3"
       d="M 426.86,164.01 C 426.86,75.1 492.9,6.9 583.97,6.9 c 54.81,0 103.15,27.19 129.48,69.92 l -59.56,34.53 C 640.51,88.04 614.61,74.23 583.97,74.23 c -53.52,0 -88.05,35.82 -88.05,89.77 0,53.95 34.53,89.77 88.05,89.77 30.64,0 56.97,-13.81 69.92,-37.12 l 59.56,34.53 c -25.9,42.73 -74.24,69.92 -129.48,69.92 -91.07,0 -157.11,-68.19 -157.11,-157.11 z"
       id="path6" />
    <path
       class="cls-3"
       d="M 922.77,267.6 H 810.55 l -15.11,47.48 H 719.91 L 822.64,12.95 h 88.05 l 102.72,302.13 H 937.88 Z M 902.05,202.86 866.66,91.94 831.27,202.86 Z"
       id="path7" />
  </g>
  <g
     class="cls-2"
     clip-path="url(#clippath)"
     id="g11">
    <g
       id="g10">
      <path
         class="cls-5"
         d="m 1162.91,338.35 c -32.18,0 -59.33,-7.17 -81.36,-21.6 -21.94,-14.43 -37.48,-34.07 -46.44,-58.83 l 54.81,-32.1 c 12.72,33.13 37.65,49.69 74.79,49.69 17.93,0 31.16,-3.24 39.53,-9.73 8.37,-6.49 12.55,-14.69 12.55,-24.67 0,-11.44 -5.12,-20.41 -15.37,-26.72 -10.24,-6.32 -28.51,-13.23 -54.81,-20.66 -14.6,-4.35 -26.89,-8.71 -36.97,-12.98 -10.07,-4.35 -20.15,-10.16 -30.22,-17.42 -10.07,-7.26 -17.76,-16.48 -22.96,-27.66 -5.29,-11.18 -7.94,-24.16 -7.94,-39.02 0,-29.46 10.42,-52.93 31.33,-70.44 21,-17.42 46.19,-26.21 75.64,-26.21 26.29,0 49.52,6.4 69.49,19.3 19.98,12.89 35.51,30.74 46.7,53.7 l -53.87,31.16 C 1204.83,76.24 1184,62.32 1155.57,62.32 c -13.32,0 -23.82,2.99 -31.33,9.05 -7.6,6.06 -11.35,13.83 -11.35,23.48 0,10.25 4.27,18.53 12.81,24.84 8.54,6.32 24.84,13.23 49,20.66 9.9,3.07 17.42,5.46 22.54,7.17 5.12,1.71 12.12,4.35 20.92,7.94 8.79,3.59 15.62,6.92 20.49,9.99 4.78,3.07 10.33,7.26 16.48,12.55 6.23,5.29 10.93,10.67 14.17,16.31 3.24,5.55 6.06,12.29 8.37,20.23 2.3,7.94 3.5,16.48 3.5,25.78 0,30.05 -10.93,53.87 -32.78,71.55 -21.85,17.67 -50.28,26.47 -85.29,26.47 h -0.17 z"
         id="path8"
         style="fill:url(#Degradado_sin_nombre_3)" />
      <path
         class="cls-4"
         d="m 1206.55,218.24 c 7.33,6.77 10.15,12.97 10.24,22.95 0,9.99 -4.18,18.1 -12.55,24.67 -8.37,6.49 -21.51,9.73 -39.53,9.73 -37.14,0 -62.15,-16.56 -74.79,-49.69 l -54.81,32.02 c 8.96,24.76 24.5,44.4 46.44,58.83 22.03,14.43 49.09,21.6 81.36,21.6 35,0 63.43,-8.79 85.29,-26.47 27.71,-31.62 -6.69,-77.86 -46.17,-97.03 l 4.51,3.38 z"
         id="path9"
         style="fill:url(#Degradado_sin_nombre_2)" />
      <path
         class="cls-3"
         d="m 1125.44,119.61 c -8.45,-6.32 -12.72,-14.6 -12.72,-24.84 0,-9.56 3.76,-17.42 11.35,-23.48 7.6,-6.06 18.01,-9.05 31.33,-9.05 28.51,0 49.26,13.92 62.24,41.84 l 53.87,-31.16 C 1260.33,49.95 1244.79,32.11 1224.81,19.22 1205,6.41 1181.78,0.01 1155.49,0.01 c -29.45,0 -54.64,8.79 -75.55,26.3 -0.43,0.43 -0.77,0.85 -1.2,1.28 -27.27,33.33 10.93,73 46.7,92.12 v -0.09 z"
         id="path10" />
    </g>
  </g>
  <text
     id="text11" />
</svg>
