<?xml version="1.0" encoding="UTF-8" standalone="no"?>
<!-- Created with Inkscape (http://www.inkscape.org/) -->

<svg
   version="1.1"
   id="svg1"
   width="1053.3333"
   height="280.39999"
   viewBox="0 0 1053.3333 280.39999"
   xmlns="http://www.w3.org/2000/svg"
   xmlns:svg="http://www.w3.org/2000/svg">
  <defs
     id="defs1" />
  <g
     id="g1">
    <g
       id="group-R5">
      <path
         id="path2"
         d="m 1760.54,638.531 c -1.72,63.77 -16.02,112.278 -42.87,145.617 -26.95,33.274 -68.1,50.032 -123.57,50.032 -56.46,0 -100.74,-17.59 -132.66,-52.629 -31.9,-34.961 -49.53,-82.641 -52.73,-143.02 z M 1664.01,4.53125 c -176.34,0 -311.46,43.62895 -405.53,130.91775 -93.95,87.352 -140.89,211.66 -140.89,373.082 0,157.938 43.74,283.957 131.33,378.168 87.63,94.223 210.17,141.301 367.67,141.301 143.15,0 250.72,-39.961 322.73,-119.75 72.08,-79.879 108.12,-194.148 108.12,-342.93 V 456.84 h -637.93 c 2.74,-44.84 11.87,-82.399 27.48,-112.43 15.52,-30.211 35.94,-54.101 61.48,-71.98 24.99,-17.782 54.1,-30.578 87.39,-38.399 33.18,-7.66 69.52,-11.48 108.98,-11.48 33.78,0 67.07,3.82 99.71,11.48 32.75,7.821 62.79,18.071 89.9,30.649 23.75,10.949 45.85,22.73 66.08,35.34 20.33,12.582 36.71,23.82 49.53,33.589 h 30.78 V 84.6016 c -23.86,-9.711 -45.65,-18.8516 -65.29,-27.1602 -19.73,-8.2812 -46.79,-16.7305 -81.1,-25.4297 -31.62,-8.5429 -64.21,-15.25 -97.8,-20.2304 -33.49,-4.75005 -74.42,-7.25005 -122.64,-7.25005"
         style="fill:#231f20;fill-opacity:1;fill-rule:nonzero;stroke:none"
         transform="matrix(0.13333333,0,0,-0.13333333,0,280.4)" />
      <path
         id="path3"
         d="M 3123.88,30.4414 H 2831.04 V 510.191 c 0,39.079 -1.53,77.969 -4.62,116.848 -3,38.691 -8.58,67.27 -17.04,85.633 -9.91,21.789 -24.35,37.449 -43.2,46.976 -18.9,9.473 -44.13,14.243 -75.7,14.243 -23.86,0 -48.01,-4.661 -72.37,-13.801 -24.45,-9.281 -50.47,-23.86 -78.21,-43.942 V 30.4414 H 2248.83 V 997.801 H 2539.9 V 890.98 c 47.68,41.961 94.12,74.661 139.39,98.329 45.06,23.471 95.19,35.201 150.03,35.201 95.43,0 168.3,-31.158 218.75,-93.471 50.53,-62.309 75.81,-152.641 75.81,-270.859 V 30.4414"
         style="fill:#231f20;fill-opacity:1;fill-rule:nonzero;stroke:none"
         transform="matrix(0.13333333,0,0,-0.13333333,0,280.4)" />
      <path
         id="path4"
         d="m 3946.21,511.73 c 0,57.418 -4.66,105.25 -13.8,143.442 -9.08,38.25 -21.73,68.777 -37.84,91.719 -17.29,24.191 -36.62,40.98 -58.22,50.41 -21.71,9.469 -46.46,14.238 -74.14,14.238 -25.92,0 -49.59,-4.23 -70.65,-12.519 -21.01,-8.34 -40.4,-24.239 -58.08,-47.829 -16.7,-22.371 -29.94,-53.113 -39.96,-92.132 -10.01,-39.079 -14.97,-88.129 -14.97,-147.329 0,-59.171 4.76,-106.941 14.19,-143.41 9.38,-36.531 21.55,-65.64 36.56,-87.39 15.48,-22.489 34.92,-38.84 58.13,-49.192 23.23,-10.316 49.05,-15.457 77.24,-15.457 23.35,0 47.12,5.141 71.18,15.457 24.16,10.352 43.41,25.871 57.74,46.492 17.28,24.692 30.33,54.489 39.27,89.2 8.89,34.75 13.35,82.82 13.35,144.3 z m 298.8,1.75 c 0,-159.16 -42.08,-284.5 -126.08,-376.058 C 4034.98,45.8086 3915.97,0 3762.21,0 3609.92,0 3491.32,45.8086 3406.76,137.422 3322.33,228.98 3280.11,354.32 3280.11,513.48 c 0,160.801 42.22,286.731 126.65,377.739 84.56,91.031 203.16,136.641 355.45,136.641 153.17,0 272.03,-45.911 356.33,-137.481 84.3,-91.649 126.47,-217.231 126.47,-376.899"
         style="fill:#231f20;fill-opacity:1;fill-rule:nonzero;stroke:none"
         transform="matrix(0.13333333,0,0,-0.13333333,0,280.4)" />
      <path
         id="path5"
         d="m 5019.54,371.941 c -8.8,-34.8 -21.91,-64.453 -39.09,-89.191 -14.45,-20.68 -33.68,-36.199 -57.84,-46.5 -24.06,-10.262 -47.82,-15.57 -71.09,-15.57 -28.28,0 -54.12,5.308 -77.38,15.57 -23.36,10.301 -42.71,26.711 -58.32,49.051 -14.92,21.898 -27.11,51.058 -36.48,87.48 -9.47,36.43 -14.19,84.301 -14.19,143.457 0,59.153 5.07,108.25 14.98,147.332 9.97,39.02 23.36,69.762 39.91,92.16 17.78,23.5 37.21,39.559 58.31,47.86 21.07,8.25 44.5,12.469 70.65,12.469 27.75,0 52.4,-4.809 74,-14.239 21.7,-9.468 41.13,-26.269 58.22,-50.371 16.15,-22.988 28.72,-53.609 37.88,-91.711 9.17,-38.25 13.69,-86.109 13.69,-143.5 0,-61.359 -4.44,-109.539 -13.25,-144.297 z m 12.65,1137.869 V 951.27 c -41.68,22.281 -109.19,55.22 -145.83,64.84 -31.9,8.4 -71.37,15.96 -120.18,15.96 -53.76,0 -104.86,-12.22 -153.07,-36.621 -48.31,-24.449 -89.26,-57.5 -123.09,-99.461 -8.1,-10.027 -15.64,-20.617 -22.82,-31.476 -67.06,-87.922 -100.65,-203.403 -100.65,-346.602 0,-159.019 42.23,-284.359 126.82,-376.019 C 4577.97,50.2891 4696.48,4.48047 4849,4.48047 c 153.62,0 272.45,45.80863 356.49,137.41053 81.41,88.808 124.17,209.429 126.72,361.531 v 0 1006.388 h -300.02"
         style="fill:#231f20;fill-opacity:1;fill-rule:nonzero;stroke:none"
         transform="matrix(0.13333333,0,0,-0.13333333,0,280.4)" />
      <path
         id="path6"
         d="m 652.953,371.941 c -8.824,-34.8 -21.898,-64.453 -39.082,-89.191 -14.422,-20.68 -33.715,-36.199 -57.867,-46.5 -24.063,-10.262 -47.828,-15.57 -71.039,-15.57 -28.277,0 -54.113,5.308 -77.379,15.57 -23.27,10.301 -42.707,26.711 -58.277,49.051 -14.985,21.898 -27.094,51.058 -36.582,87.48 -9.528,36.43 -14.133,84.301 -14.133,143.457 0,59.153 5.015,108.25 14.98,147.332 9.953,39.02 23.305,69.762 39.914,92.16 17.774,23.5 37.211,39.559 58.313,47.86 21.008,8.25 44.48,12.469 70.648,12.469 27.742,0 52.395,-4.809 73.942,-14.239 21.66,-9.468 41.187,-26.269 58.277,-50.371 16.09,-22.988 28.668,-53.609 37.895,-91.711 9.136,-38.25 13.648,-86.109 13.648,-143.5 0,-61.359 -4.418,-109.539 -13.258,-144.297 z M 665.621,1509.81 V 951.27 c -41.723,22.281 -109.285,55.22 -145.902,64.84 -31.813,8.4 -71.281,15.96 -120.086,15.96 -53.766,0 -104.863,-12.22 -153.082,-36.621 C 198.242,971 157.297,937.949 123.434,895.988 115.367,885.961 107.805,875.371 100.555,864.512 33.5859,776.59 0,661.109 0,517.91 0,358.891 42.2227,233.551 126.762,141.891 211.395,50.2891 329.871,4.48047 482.449,4.48047 c 153.617,0 272.426,45.80863 356.43,137.41053 81.449,88.808 124.266,209.429 126.707,361.531 v 0 1006.388 H 665.621"
         style="fill:#231f20;fill-opacity:1;fill-rule:nonzero;stroke:none"
         transform="matrix(0.13333333,0,0,-0.13333333,0,280.4)" />
      <path
         id="path7"
         d="m 6154.78,516.281 c 0,57.399 -4.52,105.207 -13.54,143.309 -9.29,38.25 -21.9,68.871 -37.99,91.808 -17.2,24.102 -36.69,40.891 -58.26,50.383 -21.52,9.469 -46.27,14.278 -73.97,14.278 -26.04,0 -49.68,-4.219 -70.65,-12.528 -21.09,-8.34 -40.54,-24.301 -58.26,-47.801 -16.61,-22.398 -29.89,-53.14 -39.91,-92.25 -10.03,-38.992 -15.02,-88.089 -15.02,-147.199 0,-59.199 4.59,-107.07 14.17,-143.5 9.39,-36.531 21.56,-65.582 36.58,-87.441 15.5,-22.379 34.92,-38.82 58.22,-49.141 23.27,-10.359 49.05,-15.469 77.38,-15.469 23.38,0 47.05,5.11 71.09,15.469 24.16,10.321 43.39,25.871 57.74,46.551 17.28,24.691 30.34,54.441 39.18,89.191 8.84,34.661 13.24,82.821 13.24,144.34 z m 298.69,1.629 c 0,-159.019 -42.03,-284.422 -125.95,-375.961 C 6243.44,50.2891 6124.59,4.48047 5971.02,4.48047 c -152.44,0 -271.06,45.80863 -355.58,137.46853 -84.63,91.539 -126.87,216.942 -126.87,375.961 0,160.879 42.24,286.809 126.87,377.731 84.52,91.121 203.14,136.639 355.58,136.639 153.02,0 271.64,-45.76 355.98,-137.471 84.37,-91.629 126.47,-217.149 126.47,-376.899"
         style="fill:#231f20;fill-opacity:1;fill-rule:nonzero;stroke:none"
         transform="matrix(0.13333333,0,0,-0.13333333,0,280.4)" />
      <path
         id="path8"
         d="m 6709.36,1266.94 150.13,-256.67 -260.07,-148.219 -150.17,256.869 260.11,148.02"
         style="fill:#f03941;fill-opacity:1;fill-rule:nonzero;stroke:none"
         transform="matrix(0.13333333,0,0,-0.13333333,0,280.4)" />
      <path
         id="path9"
         d="m 7024.43,916.352 h 300.39 V 619.629 h -300.39 v 296.723"
         style="fill:#f03941;fill-opacity:1;fill-rule:nonzero;stroke:none"
         transform="matrix(0.13333333,0,0,-0.13333333,0,280.4)" />
      <path
         id="path10"
         d="M 7489.68,1010.32 7639.93,1266.94 7900,1118.92 7749.75,862.109 7489.68,1010.32"
         style="fill:#f03941;fill-opacity:1;fill-rule:nonzero;stroke:none"
         transform="matrix(0.13333333,0,0,-0.13333333,0,280.4)" />
      <path
         id="path11"
         d="m 7639.93,1455.32 -150.25,256.91 260.07,148.36 150.25,-256.96 -260.07,-148.31"
         style="fill:#f03941;fill-opacity:1;fill-rule:nonzero;stroke:none"
         transform="matrix(0.13333333,0,0,-0.13333333,0,280.4)" />
      <path
         id="path12"
         d="m 7324.82,1212.79 h -300.39 v 296.78 h 300.39 v -296.78"
         style="fill:#211d1d;fill-opacity:1;fill-rule:nonzero;stroke:none"
         transform="matrix(0.13333333,0,0,-0.13333333,0,280.4)" />
      <path
         id="path13"
         d="m 7324.82,1806.29 h -300.39 v 296.73 l 300.39,-0.06 v -296.67"
         style="fill:#f03941;fill-opacity:1;fill-rule:nonzero;stroke:none"
         transform="matrix(0.13333333,0,0,-0.13333333,0,280.4)" />
      <path
         id="path14"
         d="m 6859.49,1712.23 -150.13,-256.96 -260.11,148.36 150.17,256.91 260.07,-148.31"
         style="fill:#f03941;fill-opacity:1;fill-rule:nonzero;stroke:none"
         transform="matrix(0.13333333,0,0,-0.13333333,0,280.4)" />
    </g>
  </g>
</svg>
