<?xml version="1.0" encoding="UTF-8" standalone="no"?>
<svg
   id="Layer_1"
   data-name="Layer 1"
   viewBox="0 0 202.52 32.43"
   version="1.1"
   sodipodi:docname="dinahosting.svg"
   width="202.52"
   height="32.43"
   inkscape:version="1.4 (e7c3feb100, 2024-10-09)"
   xmlns:inkscape="http://www.inkscape.org/namespaces/inkscape"
   xmlns:sodipodi="http://sodipodi.sourceforge.net/DTD/sodipodi-0.dtd"
   xmlns="http://www.w3.org/2000/svg"
   xmlns:svg="http://www.w3.org/2000/svg"
   xmlns:rdf="http://www.w3.org/1999/02/22-rdf-syntax-ns#"
   xmlns:cc="http://creativecommons.org/ns#"
   xmlns:dc="http://purl.org/dc/elements/1.1/">
  <sodipodi:namedview
     id="namedview14"
     pagecolor="#ffffff"
     bordercolor="#000000"
     borderopacity="0.25"
     inkscape:showpageshadow="2"
     inkscape:pageopacity="0.0"
     inkscape:pagecheckerboard="0"
     inkscape:deskcolor="#d1d1d1"
     inkscape:zoom="2.4390823"
     inkscape:cx="8.4048004"
     inkscape:cy="-9.8397663"
     inkscape:window-width="2560"
     inkscape:window-height="1371"
     inkscape:window-x="0"
     inkscape:window-y="0"
     inkscape:window-maximized="1"
     inkscape:current-layer="Layer_1" />
  <defs
     id="defs1">
    <style
       id="style1">.cls-1{fill:#2f4050;}.cls-2{fill:#ff6c0c;}</style>
  </defs>
  <title
     id="title1">rgb-logo-color</title>
  <path
     class="cls-1"
     d="M 201.64611,19.431971 V 9.0219705 c 0,-0.81 -0.69,-1 -1.46,-1.24 a 15.37,15.37 0 0 0 -4.45,-0.65 16.68,16.68 0 0 0 -3,0.27 7,7 0 0 0 -5.83,5.2900005 14.12,14.12 0 0 0 0.06,7.3 6.85,6.85 0 0 0 4.71,4.82 9.36,9.36 0 0 0 2.25,0.44 c 0.43,0 0.91,0 1.48,0 a 7.87,7.87 0 0 0 2,-0.21 c 0.72,-0.18 1.06,-0.48 1.06,0 0,1.42 -1.42,3.18 -5,2.9 -0.73,-0.06 -1,0 -1,0.47 v 1.65 c 0,0.52 0.45,0.56 1,0.62 4.69,0.52 8.18,-2.9 8.18,-6.65 z m -3.15,2.1 c 0,0.72 -0.06,1.05 -0.76,1.21 a 11,11 0 0 1 -2.56,0.25 10.79,10.79 0 0 1 -1.15,-0.06 4.87,4.87 0 0 1 -3.61,-2.94 9.68,9.68 0 0 1 -0.61,-5.51 6.87,6.87 0 0 1 0.4,-1.42 4.66,4.66 0 0 1 4.37,-3.2700005 9.92,9.92 0 0 1 2.87,0.2099995 c 0.56,0.13 1,0.27 1,0.79 v 10.740001 z"
     id="path1" />
  <path
     class="cls-1"
     d="m 149.01611,19.761971 a 4.5,4.5 0 0 0 -2.13,-3.45 9.25,9.25 0 0 0 -2,-0.9 22.14,22.14 0 0 1 -4.28,-1.29 1.77,1.77 0 0 1 -0.75,-1.41 2.31,2.31 0 0 1 1.69,-2.400001 5,5 0 0 1 3,0.22 c 1.21,0.37 1.88,0.75 2.4,0.92 0.33,0.11 0.61,0.12 0.73,-0.28 0.06,-0.21 0.48,-1.3499995 0.55,-1.5599995 0.12,-0.4 0,-0.55 -0.45,-0.74 a 12,12 0 0 0 -5.09,-1.24 8.62,8.62 0 0 0 -1.34,0.09 5.77,5.77 0 0 0 -3.14,1.61 5,5 0 0 0 -0.35,6.0900005 5.43,5.43 0 0 0 2.64,1.78 c 1.61,0.51 3.7,0.72 4.41,1.21 a 2,2 0 0 1 1.1,2.34 1.81,1.81 0 0 1 -1.06,1.33 6.06,6.06 0 0 1 -1.13,0.35 7.35,7.35 0 0 1 -1.16,0.12 9.16,9.16 0 0 1 -2.51,-0.4 c -0.42,-0.12 -2.14,-0.73 -2.28,-0.77 -0.42,-0.13 -0.5,0.11 -0.61,0.41 l -0.53,1.66 c -0.14,0.44 0,0.55 0.69,0.81 a 14.28,14.28 0 0 0 5.08,1.09 11.64,11.64 0 0 0 3.05,-0.37 4.17,4.17 0 0 0 3,-2.52 5.57,5.57 0 0 0 0.47,-2.7 z"
     id="path2" />
  <rect
     class="cls-1"
     x="58.586102"
     y="2.8319707"
     width="3.1800001"
     height="3.1800001"
     rx="0.52999997"
     id="rect2" />
  <rect
     class="cls-1"
     x="58.586102"
     y="8.5219707"
     width="3.1800001"
     height="16.610001"
     rx="0.52999997"
     id="rect3" />
  <rect
     class="cls-1"
     x="162.6161"
     y="2.8319707"
     width="3.1800001"
     height="3.1800001"
     rx="0.52999997"
     id="rect4" />
  <rect
     class="cls-1"
     x="162.6161"
     y="8.4819717"
     width="3.1800001"
     height="16.610001"
     rx="0.52999997"
     id="rect5" />
  <path
     class="cls-1"
     d="m 126.43611,7.9519705 c -4.49,0 -8.13,2.9999995 -8.13,8.6600005 0,5.66 3.64,8.65 8.13,8.65 4.49,0 8.12,-2.82 8.12,-8.65 0,-5.480001 -3.53,-8.6600005 -8.12,-8.6600005 z m 0,15.0000005 c -2.83,0 -4.77,-2.59 -4.77,-6.3 0,-3.9 1.94,-6.310001 4.77,-6.310001 2.83,0 4.77,2.410001 4.77,6.310001 0,4.04 -1.94,6.26 -4.77,6.26 z"
     id="path5" />
  <path
     class="cls-1"
     d="m 115.99611,17.161971 a 21,21 0 0 0 -0.16,-2.59 6.9,6.9 0 0 0 -6.16,-6.3700005 15.25,15.25 0 0 0 -2.64,-0.22 16.78,16.78 0 0 0 -2.68,0.22 0.18,0.18 0 0 1 -0.2,-0.18 v -4.63 a 0.53,0.53 0 0 0 -0.53,-0.53 h -2.13 a 0.53,0.53 0 0 0 -0.53,0.53 V 24.591971 a 0.53,0.53 0 0 0 0.53,0.53 h 2.12 a 0.53,0.53 0 0 0 0.53,-0.53 V 11.59197 c 0,-0.6 0.17,-0.7 0.64,-0.79 a 15.94,15.94 0 0 1 2.6,-0.23 10.39,10.39 0 0 1 1.74,0.13 4.71,4.71 0 0 1 3.23,3.250001 9.1,9.1 0 0 1 0.44,3.08 c 0,1.61 0,7.57 0,7.57 a 0.53,0.53 0 0 0 0.53,0.53 h 2.17 a 0.53,0.53 0 0 0 0.53,-0.53 z"
     id="path6" />
  <path
     class="cls-1"
     d="m 155.39611,11.47197 h 4.24 a 0.53,0.53 0 0 0 0.53,-0.53 V 9.0119705 a 0.53,0.53 0 0 0 -0.53,-0.53 h -4.24 a 0.53,0.53 0 0 1 -0.53,-0.53 v -4.59 a 0.53,0.53 0 0 0 -0.53,-0.53 h -2.12 a 0.53,0.53 0 0 0 -0.53,0.53 V 14.531971 c 0,3.79 -0.53,10.6 6.89,10.6 h 1.06 a 0.53,0.53 0 0 0 0.53,-0.53 v -2 a 0.53,0.53 0 0 0 -0.53,-0.53 h -1.06 c -3.91,0 -3.72,-2.91 -3.72,-6.8 v -3.27 a 0.53,0.53 0 0 1 0.54,-0.530001 z"
     id="path7" />
  <path
     class="cls-1"
     d="M 68.926104,20.251971 Z"
     id="path8" />
  <path
     class="cls-1"
     d="m 80.766104,16.821971 a 21.33,21.33 0 0 0 -0.16,-2.6 c -0.47,-3.570001 -2.6,-5.5900005 -6.16,-6.1900005 a 16.31,16.31 0 0 0 -2.64,-0.21 21.22,21.22 0 0 0 -5.22,0.71 c -0.74,0.2 -0.83,0.41 -0.84,1.13 V 24.531971 a 0.53,0.53 0 0 0 0.53,0.53 h 2.12 a 0.53,0.53 0 0 0 0.53,-0.53 V 11.32197 c 0,-0.61 0.11,-0.74 0.66,-0.8 a 14,14 0 0 1 2.46,-0.24 10.6,10.6 0 0 1 1.78,0.14 4.56,4.56 0 0 1 3.3,3.110001 9.37,9.37 0 0 1 0.45,3.14 c 0,1.65 0,5.95 0,5.95 v 2 a 0.53,0.53 0 0 0 0.53,0.53 h 2.12 a 0.53,0.53 0 0 0 0.53,-0.53 v -7.8 z"
     id="path9" />
  <path
     class="cls-1"
     d="m 53.966104,2.8319705 h -1.79 a 0.69,0.69 0 0 0 -0.68,0.7 v 4.93 a 0.19,0.19 0 0 1 -0.24,0.19 15.9,15.9 0 0 0 -3.89,-0.43 c -4.42,0 -7.88,2.9199995 -7.88,8.5800005 0,5.66 3.53,8.63 8.3,8.65 a 24.34,24.34 0 0 0 3.91,-0.25 9.63,9.63 0 0 0 2.29,-0.6 c 0.35,-0.18 0.69,-0.41 0.69,-0.8 V 3.5319705 a 0.69,0.69 0 0 0 -0.71,-0.7 z m -6.08,20.1400005 a 4.38,4.38 0 0 1 -3.79,-1.61 6.73,6.73 0 0 1 -1.49,-4.57 c 0,-2.22 0.58,-3.75 1.73,-4.77 a 4.62,4.62 0 0 1 3.43,-1.420001 c 3.1,0 3.71,0.78 3.71,1.420001 v 9.51 c 0.02,1.08 -0.5,1.44 -3.59,1.44 z"
     id="path10" />
  <path
     class="cls-1"
     d="m 97.686104,14.681971 c 0,-3.530001 -1.71,-5.5400005 -4,-6.2500005 a 11.29,11.29 0 0 0 -2.16,-0.51 12.54,12.54 0 0 0 -1.74,-0.06 c -0.62,0 -1.33,0.07 -1.93,0.14 a 12.3,12.3 0 0 0 -2.14,0.5 c -0.4,0.12 -0.9,0.34 -1.14,0.43 a 0.25,0.25 0 0 0 -0.17,0.27 c 0.1,0.33 0.46,1.5499995 0.6,1.9999995 a 0.22,0.22 0 0 0 0.29,0.09 l 0.92,-0.28 a 12.05,12.05 0 0 1 3.77,-0.61 h 0.81 a 5,5 0 0 1 2.14,0.59 3.18,3.18 0 0 1 1.65,3.250001 0.33,0.33 0 0 1 -0.4,0.33 10.47,10.47 0 0 0 -2.77,-0.33 c -5.47,0 -8.22,2.46 -8.22,5.65 0,3.19 3,5.66 8.66,5.66 a 13.34,13.34 0 0 0 5.5,-1 0.53,0.53 0 0 0 0.3,-0.48 v -9.39 z m -3.09,7.66 a 0.51,0.51 0 0 1 -0.43,0.53 5.91,5.91 0 0 1 -0.93,0.19 16,16 0 0 1 -2.2,0.17 9,9 0 0 1 -2.21,-0.26 3.51,3.51 0 0 1 -1.91,-1.08 3.09,3.09 0 0 1 -0.7,-2 2.8,2.8 0 0 1 0.58,-1.92 4,4 0 0 1 2.2,-1.25 7.9,7.9 0 0 1 2.15,-0.25 10.26,10.26 0 0 1 2.86,0.46 0.88,0.88 0 0 1 0.59,0.72 v 4.68 z"
     id="path11" />
  <path
     class="cls-1"
     d="M 172.54611,20.211971 Z"
     id="path12" />
  <path
     class="cls-1"
     d="m 184.38611,16.791971 a 23.33,23.33 0 0 0 -0.15,-2.6 c -0.48,-3.570001 -2.61,-5.6000005 -6.17,-6.1900005 a 15.17,15.17 0 0 0 -2.64,-0.22 20.72,20.72 0 0 0 -5.21,0.72 c -0.75,0.2 -0.83,0.4 -0.85,1.12 V 24.531971 a 0.53,0.53 0 0 0 0.53,0.53 h 2.12 a 0.53,0.53 0 0 0 0.53,-0.53 V 11.29197 c 0,-0.61 0.11,-0.74 0.66,-0.81 a 13.51,13.51 0 0 1 2.47,-0.23 9.71,9.71 0 0 1 1.77,0.13 4.59,4.59 0 0 1 3.31,3.150001 9.74,9.74 0 0 1 0.45,3.15 v 7.85 a 0.53,0.53 0 0 0 0.53,0.53 h 2.12 a 0.53,0.53 0 0 0 0.53,-0.53 z"
     id="path13" />
  <path
     class="cls-2"
     d="m 29.666104,22.431971 -10.89,-18.8500005 a 3.76,3.76 0 0 0 -6.52,0 L 1.3761043,22.431971 a 3.77,3.77 0 0 0 3.26,5.65 H 26.396104 a 3.77,3.77 0 0 0 3.27,-5.65 z m -6.23,2.52 H 7.6061043 a 2.36,2.36 0 0 1 -2.05,-3.55 L 13.496104,7.6819705 a 2.37,2.37 0 0 1 4.1,0 l 7.9,13.7200005 a 2.37,2.37 0 0 1 -2.06,3.55 z"
     id="path14" />
  <metadata
     id="metadata14">
    <rdf:RDF>
      <cc:Work
         rdf:about="">
        <dc:title>rgb-logo-color</dc:title>
      </cc:Work>
    </rdf:RDF>
  </metadata>
</svg>
