<?xml version="1.0" encoding="UTF-8" standalone="no"?>
<svg
   viewBox="82.196 226.37 967.559 419.52756"
   version="1.1"
   id="svg184"
   sodipodi:docname="hackudc.svg"
   width="256mm"
   height="111mm"
   xml:space="preserve"
   inkscape:version="1.3.2 (091e20ef0f, 2023-11-25, custom)"
   inkscape:export-filename="hackudc-logo.png"
   inkscape:export-xdpi="96"
   inkscape:export-ydpi="96"
   xmlns:inkscape="http://www.inkscape.org/namespaces/inkscape"
   xmlns:sodipodi="http://sodipodi.sourceforge.net/DTD/sodipodi-0.dtd"
   xmlns="http://www.w3.org/2000/svg"
   xmlns:svg="http://www.w3.org/2000/svg"><defs
     id="defs184" /><sodipodi:namedview
     id="namedview184"
     pagecolor="#181818"
     bordercolor="#000000"
     borderopacity="0.25"
     inkscape:showpageshadow="2"
     inkscape:pageopacity="0.0"
     inkscape:pagecheckerboard="0"
     inkscape:deskcolor="#d1d1d1"
     inkscape:zoom="0.74457511"
     inkscape:cx="491.55551"
     inkscape:cy="376.0534"
     inkscape:window-width="1920"
     inkscape:window-height="1011"
     inkscape:window-x="0"
     inkscape:window-y="0"
     inkscape:window-maximized="1"
     inkscape:current-layer="svg184"
     inkscape:export-bgcolor="#18181800"
     inkscape:document-units="mm"><inkscape:page
       x="0"
       y="0"
       width="967.55896"
       height="419.52756"
       id="page204"
       margin="0"
       bleed="0" /></sodipodi:namedview><path
     d="m 689.1604,233.58983 v 131.75933 c 0,2.30063 -0.60441,4.05533 -1.83272,5.32264 -1.22829,1.26728 -3.02198,1.89118 -5.3811,1.89118 -2.28113,0 -4.05533,-0.6239 -5.32262,-1.89118 -1.24781,-1.24781 -1.8912,-3.02201 -1.8912,-5.32264 V 307.05375 H 611.6801 v 58.29541 c 0,2.35914 -0.62387,4.15283 -1.89118,5.38112 -1.24778,1.22831 -3.061,1.8327 -5.42009,1.8327 -2.30061,0 -4.07484,-0.6239 -5.32265,-1.89118 -1.24778,-1.24781 -1.89117,-3.02201 -1.89117,-5.32264 V 233.58983 c 0,-2.28113 0.60441,-4.05533 1.8327,-5.26414 1.2088,-1.22828 3.0025,-1.8327 5.38112,-1.8327 2.35909,0 4.17231,0.60442 5.42009,1.8327 1.24781,1.20881 1.89118,2.98301 1.89118,5.26414 v 58.84132 h 63.05266 v -58.84132 c 0,-2.28113 0.62389,-4.05533 1.8912,-5.26414 1.24779,-1.22828 3.06101,-1.8327 5.4396,-1.8327 4.7377,0.0205 7.09684,2.37861 7.09684,7.09684 z m 133.53355,132.44172 c 0,1.8522 -0.64339,3.39244 -1.93018,4.65975 -1.28681,1.26729 -3.15848,1.89118 -5.59557,1.89118 -1.48179,0 -2.78805,-0.31196 -3.93836,-0.93583 -1.15031,-0.62392 -1.9302,-1.63774 -2.37862,-3.04151 L 796.88017,332.1461 h -56.73566 l -11.97102,36.45904 c -0.37046,1.32577 -1.16981,2.32012 -2.37862,2.98301 a 8.3836227,8.3836227 0 0 1 -4.05533,0.99433 c -2.14466,0 -3.89938,-0.62389 -5.26415,-1.89118 -1.36476,-1.24778 -2.04715,-2.84655 -2.04715,-4.7572 0,-1.18934 0.17555,-2.22266 0.54589,-3.10004 l 46.65586,-132.30524 c 1.03331,-2.65154 3.35344,-3.99685 6.97984,-3.99685 1.69622,0 3.13899,0.33145 4.3283,0.99435 1.16983,0.66289 2.02765,1.61822 2.55406,2.88553 l 46.53889,132.42221 c 0.42889,1.09183 0.66287,2.16416 0.66287,3.19749 z m -30.376,-47.88412 -23.8251,-72.70355 -23.82509,72.70355 z m 113.64681,52.25141 c -5.73203,2.32012 -12.7314,3.48992 -20.99805,3.48992 -8.71506,0 -16.65025,-2.16416 -23.76659,-6.47292 -7.13582,-4.3283 -12.7704,-10.15785 -16.90371,-17.50815 -4.13334,-7.35028 -6.19999,-15.38297 -6.19999,-24.09801 v -52.42689 c 0,-8.79307 2.02765,-16.88424 6.10251,-24.27354 4.05534,-7.38927 9.65092,-13.21881 16.78673,-17.5081 7.13582,-4.28929 15.12951,-6.43395 24.00055,-6.43395 7.83772,0 14.6031,1.07233 20.33516,3.21697 5.73205,2.14465 11.54211,5.5371 17.44964,10.19682 1.98866,1.48177 2.98299,3.33397 2.98299,5.5371 0,1.93018 -0.70187,3.6264 -2.10564,5.08867 -1.40379,1.48176 -3.02198,2.22261 -4.87418,2.22261 -1.55977,0 -3.43147,-0.74085 -5.6541,-2.22261 -4.50375,-3.25597 -8.85154,-5.65406 -13.02386,-7.19432 -4.17231,-1.55975 -9.29995,-2.32014 -15.34399,-2.32014 -5.90751,0 -11.30813,1.44279 -16.18231,4.32832 -4.87421,2.8855 -8.75406,6.92136 -11.63959,12.12697 -2.88556,5.20567 -4.32829,11.13271 -4.32829,17.78111 v 51.29604 c 0,6.64843 1.46226,12.55597 4.36726,17.74211 2.92453,5.16664 6.84339,9.20247 11.7956,12.0685 4.95216,2.88555 10.33328,4.32832 16.18231,4.32832 5.82954,0 10.89872,-0.77987 15.18802,-2.32011 4.28929,-1.55977 8.59808,-3.95789 12.96537,-7.19435 1.18931,-0.74087 2.20314,-1.28678 3.04151,-1.65722 0.85782,-0.37046 1.7157,-0.54591 2.61255,-0.54591 1.8522,0 3.47044,0.74089 4.8742,2.22263 1.40379,1.48177 2.10566,3.17799 2.10566,5.08866 0,2.22264 -0.99435,4.07484 -2.98301,5.5371 -5.45912,4.2698 -11.0547,7.58426 -16.78675,9.90437 z M 1047.8625,366.246 c 0,1.77425 -0.6629,3.27547 -1.9887,4.48428 -1.3257,1.22831 -3.022,1.8327 -5.1081,1.8327 -1.6962,0 -3.0805,-0.33144 -4.1529,-0.99433 -1.0723,-0.66289 -2.0471,-1.7742 -2.944,-3.31444 l -42.44454,-71.26081 -20.3937,24.03955 v 44.76464 c 0,2.30062 -0.6238,4.05534 -1.8911,5.26412 -1.2478,1.22833 -3.0611,1.83273 -5.4201,1.83273 -2.3592,0 -4.1724,-0.6044 -5.4397,-1.83273 -1.2477,-1.20878 -1.8911,-2.9635 -1.8911,-5.26412 V 233.49233 c 0,-2.30061 0.6239,-4.05534 1.8911,-5.26412 1.2478,-1.22831 3.061,-1.83272 5.4397,-1.83272 2.359,0 4.1723,0.60441 5.4201,1.83272 1.2477,1.22828 1.8911,2.98301 1.8911,5.26412 v 65.48975 l 59.62134,-70.81237 c 1.3257,-1.40376 2.9245,-2.10566 4.7572,-2.10566 2.3591,0 4.2113,0.6629 5.5371,1.98868 1.3257,1.32576 1.9886,2.96351 1.9886,4.87421 0,2.22263 -0.7409,4.09431 -2.2226,5.65405 l -39.442,46.65584 45.5445,77.01234 c 0.8384,1.40379 1.2478,2.74905 1.2478,3.99683 z"
     style="fill:#ffffff;fill-opacity:1;stroke-width:1.94968"
     id="path1" /><linearGradient
     id="a"
     x1="312.40399"
     x2="312.40399"
     y1="310.67801"
     y2="388.54999"
     gradientUnits="userSpaceOnUse"
     gradientTransform="translate(345.06273,314.92039)"><stop
       offset="0"
       style="stop-color:#914694"
       id="stop1" /><stop
       offset="0"
       style="stop-color:#954694"
       id="stop2" /><stop
       offset="0"
       style="stop-color:#974694"
       id="stop3" /><stop
       offset=".168"
       style="stop-color:#944593"
       id="stop4" /><stop
       offset=".345"
       style="stop-color:#8b4292"
       id="stop5" /><stop
       offset=".526"
       style="stop-color:#7a3d8f"
       id="stop6" /><stop
       offset=".711"
       style="stop-color:#62378b"
       id="stop7" /><stop
       offset=".896"
       style="stop-color:#443286"
       id="stop8" /><stop
       offset="1"
       style="stop-color:#2d2e83"
       id="stop9" /><stop
       offset="1"
       style="stop-color:#000"
       id="stop10" /></linearGradient><path
     d="m 708.5402,490.12867 c -0.15585,19.4578 -7.81821,35.36721 -25.59929,44.86211 -32.2672,17.29367 -69.79852,-2.49559 -74.71173,-36.92692 -0.46791,-3.25594 -0.54591,-6.49243 -0.54591,-9.74842 v -61.57087 c -5.4591,-3.6849 -9.027,-9.84587 -9.027,-16.8257 0,-11.26916 9.28045,-20.39366 20.72509,-20.39366 11.40563,0 20.68609,9.1245 20.68609,20.39366 0,7.25279 -3.86036,13.60874 -9.68989,17.21566 -0.0389,21.50496 -0.0389,43.08792 0.0389,64.61238 0.0389,10.3138 4.36729,18.69741 13.72574,23.7861 14.93456,8.13014 38.62318,2.63207 41.4112,-20.39366 0.29246,-2.41759 0.44841,-4.87421 0.44841,-7.29182 v -84.79155 c 0,-8.30565 3.66543,-11.91255 12.02956,-11.91255 5.16664,0 9.16347,3.13899 10.11882,8.14967 0.33143,1.57922 0.44841,3.25594 0.44841,4.83521 0.0205,28.67978 0.17556,57.34008 -0.0586,86.00036 z"
     style="fill:#ffffff;fill-opacity:1;stroke-width:1.94968"
     id="path10" /><linearGradient
     id="b"
     x1="380.04001"
     x2="380.04001"
     y1="311.54599"
     y2="387.71701"
     gradientUnits="userSpaceOnUse"
     gradientTransform="translate(345.06273,314.92039)"><stop
       offset="0"
       style="stop-color:#914694"
       id="stop11" /><stop
       offset="0"
       style="stop-color:#954694"
       id="stop12" /><stop
       offset="0"
       style="stop-color:#974694"
       id="stop13" /><stop
       offset=".168"
       style="stop-color:#944593"
       id="stop14" /><stop
       offset=".345"
       style="stop-color:#8b4292"
       id="stop15" /><stop
       offset=".526"
       style="stop-color:#7a3d8f"
       id="stop16" /><stop
       offset=".711"
       style="stop-color:#62378b"
       id="stop17" /><stop
       offset=".896"
       style="stop-color:#443286"
       id="stop18" /><stop
       offset="1"
       style="stop-color:#2d2e83"
       id="stop19" /><stop
       offset="1"
       style="stop-color:#000"
       id="stop20" /></linearGradient><path
     d="m 737.142,465.32874 c 0,-20.17917 -0.0205,-40.35837 0.0205,-60.53754 0,-1.71575 0.11695,-3.47044 0.44841,-5.16666 0.97485,-5.01069 4.54275,-8.14968 9.72889,-8.18865 13.04335,-0.0975 26.12573,-0.44844 39.14956,0.0975 24.25403,1.01383 45.58351,22.18735 46.65584,46.05143 0.85787,19.14584 1.24778,38.33069 -0.15611,57.43758 -1.40373,19.16532 -15.92888,37.39486 -38.15521,42.99044 -4.54277,1.15028 -9.183,1.61819 -13.84275,1.65722 -10.2553,0.0975 -20.51063,0.0586 -30.76593,0.0205 -9.06602,-0.0389 -13.10186,-4.01636 -13.10186,-12.92637 0,-20.47166 0.0205,-40.96276 0.0205,-61.43442 z m 22.67477,0 c 0,16.29935 0.0389,32.61814 -0.0389,48.91745 -0.0205,2.28114 0.52641,3.31447 3.11948,3.25599 6.41445,-0.1561 12.84838,0.0205 19.26285,-0.078 16.39677,-0.25335 28.79678,-12.59494 28.83576,-28.73828 0.0389,-15.59745 0.0975,-31.1949 -0.0205,-46.77284 -0.0975,-15.77288 -12.61445,-28.05586 -28.6213,-28.25084 -6.2195,-0.0781 -12.43897,0.1364 -18.63894,-0.0975 -3.25598,-0.11695 -3.97735,1.07233 -3.95785,4.07484 0.11695,15.88988 0.0586,31.77978 0.0586,47.68917 z"
     style="fill:#ffffff;fill-opacity:1;stroke-width:1.94968"
     id="path20" /><linearGradient
     id="c"
     x1="437.013"
     x2="437.013"
     y1="310.68399"
     y2="390.22699"
     gradientUnits="userSpaceOnUse"
     gradientTransform="translate(345.06273,314.92039)"><stop
       offset="0"
       style="stop-color:#914694"
       id="stop21" /><stop
       offset="0"
       style="stop-color:#954694"
       id="stop22" /><stop
       offset="0"
       style="stop-color:#974694"
       id="stop23" /><stop
       offset=".168"
       style="stop-color:#944593"
       id="stop24" /><stop
       offset=".345"
       style="stop-color:#8b4292"
       id="stop25" /><stop
       offset=".526"
       style="stop-color:#7a3d8f"
       id="stop26" /><stop
       offset=".711"
       style="stop-color:#62378b"
       id="stop27" /><stop
       offset=".896"
       style="stop-color:#443286"
       id="stop28" /><stop
       offset="1"
       style="stop-color:#2d2e83"
       id="stop29" /><stop
       offset="1"
       style="stop-color:#000"
       id="stop30" /></linearGradient><path
     d="m 944.97787,524.28707 c 0,11.26913 -9.28048,20.35465 -20.68611,20.35465 -4.91321,0 -9.41696,-1.65725 -12.94588,-4.48427 -2.67105,0.54591 -5.4201,0.85785 -8.28615,1.01383 -13.82323,0.64339 -26.26216,-2.5346 -36.86843,-11.62007 -11.28865,-9.67044 -17.19619,-22.0119 -17.78108,-36.71247 -0.33143,-9.06602 -0.0389,-18.11254 -0.0389,-27.21754 0,-9.1635 -0.1561,-18.327 0,-27.50997 0.37044,-23.39619 17.5666,-43.67286 40.92376,-47.65019 18.52198,-3.13896 35.09426,1.77419 49.48287,13.64777 4.17231,3.47042 4.99119,9.10499 2.20314,13.56974 -3.00249,4.79623 -8.53961,6.64843 -13.74523,4.54277 -2.82705,-1.1113 -5.16664,-3.0025 -7.70123,-4.58175 -8.20815,-5.20564 -17.23519,-6.90186 -26.7691,-5.16664 -11.95153,2.16416 -21.34901,12.71192 -21.56346,24.72192 -0.33146,18.77544 -0.33146,37.53135 0,56.26776 0.25335,13.90122 11.99052,24.87792 26.08671,25.44331 2.45659,0.11695 4.7962,0 7.11634,-0.29243 2.49557,-8.52011 10.45028,-14.72008 19.92571,-14.72008 11.36664,0.0205 20.64711,9.1245 20.64711,20.39366 z"
     style="fill:#ffffff;fill-opacity:1;stroke-width:1.94968"
     id="path30" /><radialGradient
     id="d"
     cx="174.142"
     cy="307.272"
     r="86.386002"
     gradientUnits="userSpaceOnUse"
     spreadMethod="reflect"
     gradientTransform="translate(345.06273,314.92039)"><stop
       offset="0"
       style="stop-color:#914694"
       id="stop31" /><stop
       offset="0"
       style="stop-color:#954694"
       id="stop32" /><stop
       offset="0"
       style="stop-color:#974694"
       id="stop33" /><stop
       offset=".168"
       style="stop-color:#944593"
       id="stop34" /><stop
       offset=".345"
       style="stop-color:#8b4292"
       id="stop35" /><stop
       offset=".526"
       style="stop-color:#7a3d8f"
       id="stop36" /><stop
       offset=".711"
       style="stop-color:#62378b"
       id="stop37" /><stop
       offset=".896"
       style="stop-color:#443286"
       id="stop38" /><stop
       offset="1"
       style="stop-color:#2d2e83"
       id="stop39" /><stop
       offset="1"
       style="stop-color:#000"
       id="stop40" /></radialGradient><path
     d="m 552.29335,432.91787 c -0.69097,1.2028 -1.94494,1.91935 -3.32688,1.91935 H 355.41901 v 102.85169 h 54.73992 c 2.09849,0 3.81311,1.71462 3.81311,3.81311 v 33.85737 c 0,2.09849 -1.71462,3.81311 -3.81311,3.81311 H 227.89726 c -2.09849,0 -3.81311,-1.71462 -3.81311,-3.81311 v -32.85931 c 0,-2.09849 1.71462,-3.81311 3.81311,-3.81311 h 45.55262 V 401.7476 c 0,-1.22839 0.5886,-2.38 1.56107,-3.09656 l 10.64601,-7.75418 v -33.192 c 0,-1.12602 0.48624,-2.17526 1.33075,-2.89182 l 9.36644,-8.0101 v -36.51887 c 0,-2.09849 1.71462,-3.81311 3.81311,-3.81311 2.09849,0 3.81311,1.71462 3.81311,3.81311 v 15.35482 l 10.51805,-8.77784 c 0.79334,-0.66538 1.81699,-0.97247 2.86624,-0.87011 1.02365,0.10237 1.94494,0.6142 2.58472,1.43312 l 11.20902,14.25439 c 0.53742,0.66537 0.81892,1.50989 0.81892,2.37999 v 13.25633 l 9.80149,6.75612 c 1.04925,0.71656 1.63785,1.89376 1.63785,3.14774 v 33.03844 c 2.84064,1.38194 4.81118,4.32494 4.81118,7.72859 0,4.76 -3.8643,8.62429 -8.62429,8.62429 -4.75999,0 -8.62429,-3.8387 -8.62429,-8.62429 0,-2.84064 1.38193,-5.37418 3.50602,-6.90966 0.40946,-0.3071 0.84451,-0.56301 1.30516,-0.79333 v -31.04233 l -9.8015,-6.75612 c -1.04924,-0.69096 -1.63784,-1.86816 -1.63784,-3.14773 V 335.3892 l -7.95892,-10.10859 -12.41181,10.33891 v 12.97482 c 0,1.12602 -0.48623,2.17526 -1.33075,2.89182 l -9.36643,8.0101 v 33.37113 c 0,1.22839 -0.58861,2.38 -1.56108,3.09656 l -10.646,7.75418 v 138.83313 c 0,2.12409 -1.68903,3.81312 -3.81312,3.81312 h -45.55262 v 25.20749 H 406.34582 V 545.34072 H 351.6059 c -2.09849,0 -3.81312,-1.71462 -3.81312,-3.81311 V 431.0497 c 0,-2.09849 1.71463,-3.81311 3.81312,-3.81311 h 190.758 L 430.37611,234.02181 H 205.01858 L 90.446063,436.70539 204.30202,630.45759 h 226.45796 l 13.74256,-22.92986 H 229.89338 c -0.30709,0.61419 -0.69096,1.20279 -1.12602,1.71462 -1.56107,1.86817 -3.91547,3.07096 -6.57698,3.07096 -4.75999,0 -8.62428,-3.86429 -8.62428,-8.62428 0,-4.76 3.8387,-8.62429 8.62428,-8.62429 3.40366,0 6.34666,1.97053 7.7286,4.81117 h 221.36527 c 1.38193,0 2.63591,0.74215 3.32688,1.94495 0.69096,1.20279 0.66537,2.6615 -0.0512,3.8387 l -18.32341,30.55609 c -0.69097,1.15161 -1.94494,1.86816 -3.2757,1.86816 H 202.15235 c -1.35634,0 -2.58473,-0.71655 -3.2757,-1.89376 L 82.717473,438.65034 c -0.69097,-1.1772 -0.69097,-2.63591 -0.0256,-3.81312 L 199.43966,228.31494 c 0.66538,-1.20279 1.94495,-1.94494 3.32688,-1.94494 h 229.78483 c 1.35634,0 2.63591,0.74215 3.32688,1.91935 l 6.36713,10.98381 110.04797,189.85719 c 0.66538,1.15161 0.66538,2.61032 0,3.78752 z"
     style="fill:#ffffff;fill-opacity:1;stroke-width:2.55914"
     id="path40" /><linearGradient
     id="e"
     x1="214.786"
     x2="174.87601"
     y1="242.39"
     y2="282.29999"
     gradientUnits="userSpaceOnUse"
     gradientTransform="translate(345.06273,314.92039)"><stop
       offset="0"
       style="stop-color:#914694"
       id="stop41" /><stop
       offset=".199"
       style="stop-color:#954694"
       id="stop42" /><stop
       offset=".274"
       style="stop-color:#974694"
       id="stop43" /><stop
       offset=".276"
       style="stop-color:#974694"
       id="stop44" /><stop
       offset=".385"
       style="stop-color:#783c8e"
       id="stop45" /><stop
       offset=".496"
       style="stop-color:#5f378a"
       id="stop46" /><stop
       offset=".611"
       style="stop-color:#4a3387"
       id="stop47" /><stop
       offset=".731"
       style="stop-color:#3b3085"
       id="stop48" /><stop
       offset=".857"
       style="stop-color:#312f84"
       id="stop49" /><stop
       offset="1"
       style="stop-color:#2d2e83"
       id="stop50" /><stop
       offset="1"
       style="stop-color:#000"
       id="stop51" /></linearGradient><path
     d="m 501.16181,399.13728 c 0,4.75999 -3.8387,8.62428 -8.62429,8.62428 a 8.629407,8.629407 0 0 1 -7.24235,-13.3075 L 407.98367,264.01489 H 216.68824 c -2.09849,0 -3.81311,-1.71462 -3.81311,-3.81311 0,-2.09849 1.71462,-3.81312 3.81311,-3.81312 h 193.47069 c 1.35634,0 2.61032,0.71656 3.2757,1.86817 l 78.43752,132.28175 c 0.23032,-0.0256 0.43505,-0.0256 0.66537,-0.0256 4.76,0 8.62429,3.86429 8.62429,8.62429 z"
     style="fill:#ffffff;fill-opacity:1;stroke-width:2.55914"
     id="path51" /><linearGradient
     id="f"
     x1="151.896"
     x2="151.896"
     y1="309.79099"
     y2="248.23399"
     gradientUnits="userSpaceOnUse"
     gradientTransform="translate(345.06273,314.92039)"><stop
       offset="0"
       style="stop-color:#914694"
       id="stop52" /><stop
       offset="0"
       style="stop-color:#954694"
       id="stop53" /><stop
       offset="0"
       style="stop-color:#974694"
       id="stop54" /><stop
       offset=".168"
       style="stop-color:#944593"
       id="stop55" /><stop
       offset=".345"
       style="stop-color:#8b4292"
       id="stop56" /><stop
       offset=".526"
       style="stop-color:#7a3d8f"
       id="stop57" /><stop
       offset=".711"
       style="stop-color:#62378b"
       id="stop58" /><stop
       offset=".896"
       style="stop-color:#443286"
       id="stop59" /><stop
       offset="1"
       style="stop-color:#2d2e83"
       id="stop60" /><stop
       offset="1"
       style="stop-color:#000"
       id="stop61" /></linearGradient><path
     d="m 401.9441,289.73421 a 8.629407,8.629407 0 0 1 -16.35288,3.8387 H 211.21169 l -84.93773,143.23485 c -0.69096,1.20279 -1.97053,1.86817 -3.27569,1.86817 a 3.8387042,3.8387042 0 0 1 -3.30129,-5.75806 l 86.03816,-145.10301 c 0.69097,-1.15162 1.94494,-1.86817 3.30128,-1.86817 h 176.52921 a 8.6242887,8.6242887 0 0 1 7.72859,-4.78559 8.5577511,8.5577511 0 0 1 8.64988,8.57311 z"
     style="fill:#ffffff;fill-opacity:1;stroke-width:2.55914"
     id="path61" /><linearGradient
     id="g"
     x1="158.392"
     x2="118.815"
     y1="321.85999"
     y2="282.28299"
     gradientUnits="userSpaceOnUse"
     gradientTransform="translate(345.06273,314.92039)"><stop
       offset="0"
       style="stop-color:#914694"
       id="stop62" /><stop
       offset="0"
       style="stop-color:#954694"
       id="stop63" /><stop
       offset="0"
       style="stop-color:#974694"
       id="stop64" /><stop
       offset=".168"
       style="stop-color:#944593"
       id="stop65" /><stop
       offset=".345"
       style="stop-color:#8b4292"
       id="stop66" /><stop
       offset=".526"
       style="stop-color:#7a3d8f"
       id="stop67" /><stop
       offset=".711"
       style="stop-color:#62378b"
       id="stop68" /><stop
       offset=".896"
       style="stop-color:#443286"
       id="stop69" /><stop
       offset="1"
       style="stop-color:#2d2e83"
       id="stop70" /><stop
       offset="1"
       style="stop-color:#000"
       id="stop71" /></linearGradient><path
     d="m 259.24668,323.43803 -0.69097,29.30211 c -0.0512,2.09849 -1.81699,3.81311 -3.91548,3.73634 a 3.8387042,3.8387042 0 0 1 -3.73634,-3.88989 l 0.5886,-25.38663 h -23.0834 l -65.43712,112.65317 47.83026,73.95904 c 0.48623,-0.0768 0.94688,-0.12796 1.43311,-0.12796 4.76,0 8.62429,3.86429 8.62429,8.62429 0,4.75999 -3.8387,8.62429 -8.62429,8.62429 a 8.629407,8.629407 0 0 1 -7.65181,-12.61655 L 155.26898,442.0284 c -0.76775,-1.2028 -0.81893,-2.73828 -0.10237,-3.99225 L 222.88135,321.4419 c 0.69097,-1.1772 1.94494,-1.89376 3.30129,-1.89376 h 29.19974 c 1.04925,0 2.02172,0.40947 2.73828,1.15161 0.76774,0.71656 1.15161,1.71463 1.12602,2.73828 z"
     style="fill:#ffffff;fill-opacity:1;stroke-width:2.55914"
     id="path71" /><linearGradient
     id="h"
     x1="140.69701"
     x2="140.69701"
     y1="292.85599"
     y2="316.66901"
     gradientUnits="userSpaceOnUse"
     gradientTransform="translate(345.06273,314.92039)"><stop
       offset="0"
       style="stop-color:#914694"
       id="stop72" /><stop
       offset="0"
       style="stop-color:#8d4593"
       id="stop73" /><stop
       offset="0"
       style="stop-color:#824191"
       id="stop74" /><stop
       offset="0"
       style="stop-color:#6f3b8d"
       id="stop75" /><stop
       offset="0"
       style="stop-color:#543589"
       id="stop76" /><stop
       offset="0"
       style="stop-color:#332f84"
       id="stop77" /><stop
       offset=".99"
       style="stop-color:#974694"
       id="stop78" /><stop
       offset=".991"
       style="stop-color:#924493"
       id="stop79" /><stop
       offset=".993"
       style="stop-color:#834090"
       id="stop80" /><stop
       offset=".996"
       style="stop-color:#6a398c"
       id="stop81" /><stop
       offset=".999"
       style="stop-color:#463287"
       id="stop82" /><stop
       offset="1"
       style="stop-color:#2d2e83"
       id="stop83" /><stop
       offset="1"
       style="stop-color:#000"
       id="stop84" /></linearGradient><path
     d="m 257.17377,447.63291 c 0,4.75999 -3.86429,8.62428 -8.62428,8.62428 -4.76,0 -8.62429,-3.86429 -8.62429,-8.62428 0,-1.38194 0.33269,-2.66151 0.8957,-3.81312 l -33.34555,-42.32811 c -1.30516,-1.63785 -1.02365,-4.04343 0.61419,-5.37418 1.63785,-1.30516 4.06903,-1.02366 5.37419,0.63978 l 33.42232,42.37929 a 8.667794,8.667794 0 0 1 10.28772,8.49634 z"
     style="fill:#ffffff;fill-opacity:1;stroke-width:2.55914"
     id="path84" /><linearGradient
     id="i"
     x1="208.645"
     x2="208.645"
     y1="290.05801"
     y2="276.22601"
     gradientUnits="userSpaceOnUse"
     gradientTransform="translate(345.06273,314.92039)"><stop
       offset="0"
       style="stop-color:#914694"
       id="stop85" /><stop
       offset="0"
       style="stop-color:#954694"
       id="stop86" /><stop
       offset="0"
       style="stop-color:#974694"
       id="stop87" /><stop
       offset=".168"
       style="stop-color:#944593"
       id="stop88" /><stop
       offset=".345"
       style="stop-color:#8b4292"
       id="stop89" /><stop
       offset=".526"
       style="stop-color:#7a3d8f"
       id="stop90" /><stop
       offset=".711"
       style="stop-color:#62378b"
       id="stop91" /><stop
       offset=".896"
       style="stop-color:#443286"
       id="stop92" /><stop
       offset="1"
       style="stop-color:#2d2e83"
       id="stop93" /><stop
       offset="1"
       style="stop-color:#000"
       id="stop94" /></linearGradient><path
     d="m 420.01161,379.53429 c 0,4.76 -3.8643,8.62429 -8.62429,8.62429 a 8.611493,8.611493 0 0 1 -7.72859,-12.4374 l -11.43934,-17.01825 c -1.17721,-1.76581 -0.69097,-4.12021 1.04924,-5.29742 1.76581,-1.1772 4.12021,-0.71655 5.29741,1.04925 l 11.15784,16.60879 c 0.53742,-0.10236 1.10043,-0.15355 1.66344,-0.15355 4.75999,0 8.62429,3.8643 8.62429,8.62429 z"
     style="fill:#ffffff;fill-opacity:1;stroke-width:2.55914"
     id="path94" /><linearGradient
     id="j"
     x1="208.311"
     x2="194.789"
     y1="323.909"
     y2="323.909"
     gradientUnits="userSpaceOnUse"
     gradientTransform="translate(345.06273,314.92039)"><stop
       offset="0"
       style="stop-color:#914694"
       id="stop95" /><stop
       offset="0"
       style="stop-color:#954694"
       id="stop96" /><stop
       offset="0"
       style="stop-color:#974694"
       id="stop97" /><stop
       offset=".168"
       style="stop-color:#944593"
       id="stop98" /><stop
       offset=".345"
       style="stop-color:#8b4292"
       id="stop99" /><stop
       offset=".526"
       style="stop-color:#7a3d8f"
       id="stop100" /><stop
       offset=".711"
       style="stop-color:#62378b"
       id="stop101" /><stop
       offset=".896"
       style="stop-color:#443286"
       id="stop102" /><stop
       offset="1"
       style="stop-color:#2d2e83"
       id="stop103" /><stop
       offset="1"
       style="stop-color:#000"
       id="stop104" /></linearGradient><path
     d="m 404.93829,459.60966 c 0,4.76 -3.8387,8.62429 -8.62428,8.62429 -0.25592,0 -0.51183,-0.0256 -0.74215,-0.0512 L 377.3764,496.7683 c -0.71656,1.15161 -1.94495,1.7658 -3.22451,1.7658 -0.69097,0 -1.40753,-0.20473 -2.04731,-0.5886 a 3.8387042,3.8387042 0 0 1 -1.1772,-5.27182 l 18.11868,-28.45759 c -0.84452,-1.33075 -1.35634,-2.91742 -1.35634,-4.60645 0,-4.75999 3.8387,-8.62429 8.62429,-8.62429 4.78558,0.0256 8.62428,3.88989 8.62428,8.62429 z"
     style="fill:#ffffff;fill-opacity:1;stroke-width:2.55914"
     id="path104" /><linearGradient
     id="k"
     x1="203.995"
     x2="222.489"
     y1="327.948"
     y2="327.948"
     gradientUnits="userSpaceOnUse"
     gradientTransform="translate(345.06273,314.92039)"><stop
       offset="0"
       style="stop-color:#914694"
       id="stop105" /><stop
       offset="0"
       style="stop-color:#954694"
       id="stop106" /><stop
       offset="0"
       style="stop-color:#974694"
       id="stop107" /><stop
       offset=".168"
       style="stop-color:#944593"
       id="stop108" /><stop
       offset=".345"
       style="stop-color:#8b4292"
       id="stop109" /><stop
       offset=".526"
       style="stop-color:#7a3d8f"
       id="stop110" /><stop
       offset=".711"
       style="stop-color:#62378b"
       id="stop111" /><stop
       offset=".896"
       style="stop-color:#443286"
       id="stop112" /><stop
       offset="1"
       style="stop-color:#2d2e83"
       id="stop113" /><stop
       offset="1"
       style="stop-color:#000"
       id="stop114" /></linearGradient><path
     d="m 440.61265,458.35569 -30.5049,46.72982 a 8.629407,8.629407 0 0 1 -7.57504,12.7445 c -4.76,0 -8.62429,-3.83871 -8.62429,-8.62429 0,-4.78558 3.86429,-8.62429 8.62429,-8.62429 0.46064,0 0.89569,0.0256 1.35634,0.10237 l 30.35135,-46.49951 c 1.15161,-1.7658 3.53161,-2.25204 5.29741,-1.10042 1.71463,1.12602 2.20086,3.48042 1.07484,5.27182 z"
     style="fill:#ffffff;fill-opacity:1;stroke-width:2.55914"
     id="path114" /><linearGradient
     id="l"
     x1="218.922"
     x2="249.79201"
     y1="328.51501"
     y2="328.51501"
     gradientUnits="userSpaceOnUse"
     gradientTransform="translate(345.06273,314.92039)"><stop
       offset="0"
       style="stop-color:#914694"
       id="stop115" /><stop
       offset="0"
       style="stop-color:#954694"
       id="stop116" /><stop
       offset="0"
       style="stop-color:#974694"
       id="stop117" /><stop
       offset=".168"
       style="stop-color:#944593"
       id="stop118" /><stop
       offset=".345"
       style="stop-color:#8b4292"
       id="stop119" /><stop
       offset=".526"
       style="stop-color:#7a3d8f"
       id="stop120" /><stop
       offset=".711"
       style="stop-color:#62378b"
       id="stop121" /><stop
       offset=".896"
       style="stop-color:#443286"
       id="stop122" /><stop
       offset="1"
       style="stop-color:#2d2e83"
       id="stop123" /><stop
       offset="1"
       style="stop-color:#000"
       id="stop124" /></linearGradient><path
     d="m 510.50266,460.07031 -28.30405,45.45025 c 0.8957,1.35635 1.43312,2.99419 1.43312,4.76 0,4.75999 -3.8387,8.62429 -8.62429,8.62429 -4.75999,0 -8.62429,-3.8643 -8.62429,-8.62429 a 8.611493,8.611493 0 0 1 9.21289,-8.5987 l 24.82362,-39.84575 h -29.89071 l -31.34941,49.34015 c -1.12602,1.79139 -3.48043,2.30322 -5.27183,1.1772 -1.7658,-1.12602 -2.30322,-3.48043 -1.1772,-5.27182 l 32.47544,-51.10595 c 0.69097,-1.10043 1.91935,-1.7658 3.22451,-1.7658 h 38.89887 c 1.38193,0 2.6615,0.76774 3.35247,1.97053 0.61419,1.22839 0.5886,2.71268 -0.17914,3.88989 z"
     style="fill:#ffffff;fill-opacity:1;stroke-width:2.55914"
     id="path124" /><linearGradient
     id="m"
     x1="183.306"
     x2="229.547"
     y1="279.311"
     y2="279.311"
     gradientUnits="userSpaceOnUse"
     gradientTransform="translate(345.06273,314.92039)"><stop
       offset="0"
       style="stop-color:#914694"
       id="stop125" /><stop
       offset="0"
       style="stop-color:#954694"
       id="stop126" /><stop
       offset="0"
       style="stop-color:#974694"
       id="stop127" /><stop
       offset=".168"
       style="stop-color:#944593"
       id="stop128" /><stop
       offset=".345"
       style="stop-color:#8b4292"
       id="stop129" /><stop
       offset=".526"
       style="stop-color:#7a3d8f"
       id="stop130" /><stop
       offset=".711"
       style="stop-color:#62378b"
       id="stop131" /><stop
       offset=".896"
       style="stop-color:#443286"
       id="stop132" /><stop
       offset="1"
       style="stop-color:#2d2e83"
       id="stop133" /><stop
       offset="1"
       style="stop-color:#000"
       id="stop134" /></linearGradient><path
     d="m 458.75693,404.71619 c -0.69097,1.15161 -1.94495,1.86817 -3.2757,1.86817 H 369.9549 c -2.09849,0 -3.81311,-1.71462 -3.81311,-3.81311 v -43.27499 c 0,-2.09849 1.71462,-3.81311 3.81311,-3.81311 2.09849,0 3.81312,1.71462 3.81312,3.81311 v 39.46188 h 75.28978 l -39.1036,-71.78377 h -52.64143 a 8.5654286,8.5654286 0 0 1 -7.72859,4.78558 c -4.75999,0 -8.62429,-3.8387 -8.62429,-8.62429 0,-4.75999 3.83871,-8.62428 8.62429,-8.62428 3.40365,0 6.32107,1.94494 7.72859,4.78558 h 54.89347 c 1.40753,0 2.68709,0.76774 3.35247,1.99613 l 43.27499,79.43558 c 0.61419,1.2028 0.61419,2.63591 -0.0768,3.78752 z"
     style="fill:#ffffff;fill-opacity:1;stroke-width:2.55914"
     id="path134" /><linearGradient
     id="n"
     x1="152.11"
     x2="136.819"
     y1="291.96701"
     y2="283.13901"
     gradientUnits="userSpaceOnUse"
     gradientTransform="translate(345.06273,314.92039)"><stop
       offset="0"
       style="stop-color:#914694"
       id="stop135" /><stop
       offset="0"
       style="stop-color:#954694"
       id="stop136" /><stop
       offset="0"
       style="stop-color:#974694"
       id="stop137" /><stop
       offset=".168"
       style="stop-color:#944593"
       id="stop138" /><stop
       offset=".345"
       style="stop-color:#8b4292"
       id="stop139" /><stop
       offset=".526"
       style="stop-color:#7a3d8f"
       id="stop140" /><stop
       offset=".711"
       style="stop-color:#62378b"
       id="stop141" /><stop
       offset=".896"
       style="stop-color:#443286"
       id="stop142" /><stop
       offset="1"
       style="stop-color:#2d2e83"
       id="stop143" /><stop
       offset="1"
       style="stop-color:#000"
       id="stop144" /></linearGradient><path
     d="m 255.51034,402.15706 c -0.69097,0.53742 -1.50989,0.79333 -2.32882,0.79333 -1.15161,0 -2.27763,-0.51183 -3.01978,-1.50989 l -16.94148,-22.05975 c -0.51183,0.10236 -1.02365,0.12795 -1.53548,0.12795 -4.75999,0 -8.62429,-3.86429 -8.62429,-8.62429 0,-4.75999 3.8387,-8.62429 8.62429,-8.62429 4.75999,0 8.62429,3.8643 8.62429,8.62429 0,1.40753 -0.33269,2.73828 -0.94688,3.91548 l 16.8647,21.98298 c 1.27957,1.68903 0.97248,4.09462 -0.71655,5.37419 z"
     style="fill:#ffffff;fill-opacity:1;stroke-width:2.55914"
     id="path144" /><linearGradient
     id="o"
     x1="154.112"
     x2="119.536"
     y1="332.04599"
     y2="312.08401"
     gradientUnits="userSpaceOnUse"
     gradientTransform="translate(345.06273,314.92039)"><stop
       offset="0"
       style="stop-color:#914694"
       id="stop145" /><stop
       offset="0"
       style="stop-color:#954694"
       id="stop146" /><stop
       offset="0"
       style="stop-color:#974694"
       id="stop147" /><stop
       offset=".168"
       style="stop-color:#944593"
       id="stop148" /><stop
       offset=".345"
       style="stop-color:#8b4292"
       id="stop149" /><stop
       offset=".526"
       style="stop-color:#7a3d8f"
       id="stop150" /><stop
       offset=".711"
       style="stop-color:#62378b"
       id="stop151" /><stop
       offset=".896"
       style="stop-color:#443286"
       id="stop152" /><stop
       offset="1"
       style="stop-color:#2d2e83"
       id="stop153" /><stop
       offset="1"
       style="stop-color:#000"
       id="stop154" /></linearGradient><path
     d="m 253.07916,517.62528 c -0.66538,0.46064 -1.40753,0.66537 -2.14968,0.66537 -1.22838,0 -2.40559,-0.5886 -3.17333,-1.68903 l -51.51541,-75.92956 c -0.46064,0.0768 -0.92128,0.12795 -1.40752,0.12795 -4.75999,0 -8.62429,-3.8387 -8.62429,-8.62429 0,-4.78558 3.8643,-8.62429 8.62429,-8.62429 4.75999,0 8.62429,3.83871 8.62429,8.62429 0,1.45871 -0.35828,2.84064 -0.99807,4.04344 l 51.64337,76.08311 c 1.1772,1.76581 0.71656,4.14581 -1.02365,5.32301 z"
     style="fill:#ffffff;fill-opacity:1;stroke-width:2.55914"
     id="path154" /><linearGradient
     id="p"
     x1="99.813004"
     x2="131.07001"
     y1="341.52802"
     y2="341.52802"
     gradientUnits="userSpaceOnUse"
     gradientTransform="translate(345.06273,314.92039)"><stop
       offset="0"
       style="stop-color:#914694"
       id="stop155" /><stop
       offset="0"
       style="stop-color:#954694"
       id="stop156" /><stop
       offset="0"
       style="stop-color:#974694"
       id="stop157" /><stop
       offset=".168"
       style="stop-color:#944593"
       id="stop158" /><stop
       offset=".345"
       style="stop-color:#8b4292"
       id="stop159" /><stop
       offset=".526"
       style="stop-color:#7a3d8f"
       id="stop160" /><stop
       offset=".711"
       style="stop-color:#62378b"
       id="stop161" /><stop
       offset=".896"
       style="stop-color:#443286"
       id="stop162" /><stop
       offset="1"
       style="stop-color:#2d2e83"
       id="stop163" /><stop
       offset="1"
       style="stop-color:#000"
       id="stop164" /></linearGradient><path
     d="m 205.42804,581.68045 c -0.61419,0.38388 -1.30516,0.56301 -1.99612,0.56301 -1.27957,0 -2.55914,-0.66537 -3.2757,-1.84257 L 135.3589,473.63373 h -0.0512 a 8.0612787,8.0612787 0 1 1 8.06128,-8.06128 c 0,1.61226 -0.48623,3.12215 -1.30516,4.37612 l 64.64378,106.48566 c 1.10043,1.79139 0.53742,4.1458 -1.27957,5.24622 z"
     style="fill:#ffffff;fill-opacity:1;stroke-width:2.55914"
     id="path164" /><linearGradient
     id="q"
     x1="218.924"
     x2="231.88901"
     y1="355.09601"
     y2="355.09601"
     gradientUnits="userSpaceOnUse"
     gradientTransform="translate(345.06273,314.92039)"><stop
       offset="0"
       style="stop-color:#914694"
       id="stop165" /><stop
       offset="0"
       style="stop-color:#954694"
       id="stop166" /><stop
       offset="0"
       style="stop-color:#974694"
       id="stop167" /><stop
       offset=".168"
       style="stop-color:#944593"
       id="stop168" /><stop
       offset=".345"
       style="stop-color:#8b4292"
       id="stop169" /><stop
       offset=".526"
       style="stop-color:#7a3d8f"
       id="stop170" /><stop
       offset=".711"
       style="stop-color:#62378b"
       id="stop171" /><stop
       offset=".896"
       style="stop-color:#443286"
       id="stop172" /><stop
       offset="1"
       style="stop-color:#2d2e83"
       id="stop173" /><stop
       offset="1"
       style="stop-color:#000"
       id="stop174" /></linearGradient><path
     d="m 465.28272,540.45277 c 0,4.76 -3.8387,8.62429 -8.62429,8.62429 -0.2815,0 -0.56301,-0.0256 -0.84451,-0.0512 l -16.65998,26.56383 a 3.8259085,3.8259085 0 1 1 -6.47461,-4.06903 l 16.63438,-26.56383 a 8.611493,8.611493 0 0 1 7.34472,-13.12837 c 4.76,0 8.62429,3.83871 8.62429,8.62429 z"
     style="fill:#ffffff;fill-opacity:1;stroke-width:2.55914"
     id="path174" /><linearGradient
     id="r"
     x1="261.974"
     x2="230.53999"
     y1="341.86499"
     y2="341.86499"
     gradientUnits="userSpaceOnUse"
     gradientTransform="translate(345.06273,314.92039)"><stop
       offset="0"
       style="stop-color:#914694"
       id="stop175" /><stop
       offset="0"
       style="stop-color:#954694"
       id="stop176" /><stop
       offset="0"
       style="stop-color:#974694"
       id="stop177" /><stop
       offset=".168"
       style="stop-color:#944593"
       id="stop178" /><stop
       offset=".345"
       style="stop-color:#8b4292"
       id="stop179" /><stop
       offset=".526"
       style="stop-color:#7a3d8f"
       id="stop180" /><stop
       offset=".711"
       style="stop-color:#62378b"
       id="stop181" /><stop
       offset=".896"
       style="stop-color:#443286"
       id="stop182" /><stop
       offset="1"
       style="stop-color:#2d2e83"
       id="stop183" /><stop
       offset="1"
       style="stop-color:#000"
       id="stop184" /></linearGradient><path
     d="m 541.72412,463.26923 -64.25991,107.09984 c 0.99806,1.40753 1.58667,3.12215 1.58667,4.99032 0,4.75999 -3.83871,8.62429 -8.62429,8.62429 -4.76,0 -8.62429,-3.8643 -8.62429,-8.62429 0,-4.75999 3.8387,-8.62429 8.62429,-8.62429 0.10236,0 0.20473,0 0.2815,0.0256 l 64.43905,-107.40694 c 1.07484,-1.7914 3.42924,-2.40559 5.24623,-1.30516 1.84258,1.07484 2.40559,3.42924 1.33075,5.22064 z"
     style="fill:#ffffff;fill-opacity:1;stroke-width:2.55914"
     id="path184" /></svg>
