<svg xmlns="http://www.w3.org/2000/svg" viewBox="82.196 226.37 432.394 163.86"><path d="M330.61 230.69v67.58c0 1.18-.31 2.08-.94 2.73-.63.65-1.55.97-2.76.97-1.17 0-2.08-.32-2.73-.97-.64-.64-.97-1.55-.97-2.73v-29.9h-32.34v29.9c0 1.21-.32 2.13-.97 2.76-.64.63-1.57.94-2.78.94-1.18 0-2.09-.32-2.73-.97-.64-.64-.97-1.55-.97-2.73v-67.58c0-1.17.31-2.08.94-2.7.62-.63 1.54-.94 2.76-.94 1.21 0 2.14.31 2.78.94.64.62.97 1.53.97 2.7v30.18h32.34v-30.18c0-1.17.32-2.08.97-2.7.64-.63 1.57-.94 2.79-.94 2.43.01 3.64 1.22 3.64 3.64zm68.49 67.93c0 .95-.33 1.74-.99 2.39-.66.65-1.62.97-2.87.97-.76 0-1.43-.16-2.02-.48-.59-.32-.99-.84-1.22-1.56l-6.14-18.7h-29.1l-6.14 18.7c-.19.68-.6 1.19-1.22 1.53a4.3 4.3 0 0 1-2.08.51c-1.1 0-2-.32-2.7-.97-.7-.64-1.05-1.46-1.05-2.44 0-.61.09-1.14.28-1.59l23.93-67.86c.53-1.36 1.72-2.05 3.58-2.05.87 0 1.61.17 2.22.51.6.34 1.04.83 1.31 1.48l23.87 67.92c.22.56.34 1.11.34 1.64zm-15.58-24.56-12.22-37.29-12.22 37.29h24.44zm58.29 26.8c-2.94 1.19-6.53 1.79-10.77 1.79-4.47 0-8.54-1.11-12.19-3.32-3.66-2.22-6.55-5.21-8.67-8.98-2.12-3.77-3.18-7.89-3.18-12.36V251.1c0-4.51 1.04-8.66 3.13-12.45 2.08-3.79 4.95-6.78 8.61-8.98 3.66-2.2 7.76-3.3 12.31-3.3 4.02 0 7.49.55 10.43 1.65 2.94 1.1 5.92 2.84 8.95 5.23 1.02.76 1.53 1.71 1.53 2.84 0 .99-.36 1.86-1.08 2.61-.72.76-1.55 1.14-2.5 1.14-.8 0-1.76-.38-2.9-1.14-2.31-1.67-4.54-2.9-6.68-3.69-2.14-.8-4.77-1.19-7.87-1.19-3.03 0-5.8.74-8.3 2.22-2.5 1.48-4.49 3.55-5.97 6.22-1.48 2.67-2.22 5.71-2.22 9.12v26.31c0 3.41.75 6.44 2.24 9.1 1.5 2.65 3.51 4.72 6.05 6.19 2.54 1.48 5.3 2.22 8.3 2.22 2.99 0 5.59-.4 7.79-1.19 2.2-.8 4.41-2.03 6.65-3.69.61-.38 1.13-.66 1.56-.85.44-.19.88-.28 1.34-.28.95 0 1.78.38 2.5 1.14.72.76 1.08 1.63 1.08 2.61 0 1.14-.51 2.09-1.53 2.84-2.8 2.19-5.67 3.89-8.61 5.08zm72.78-2.13c0 .91-.34 1.68-1.02 2.3-.68.63-1.55.94-2.62.94-.87 0-1.58-.17-2.13-.51-.55-.34-1.05-.91-1.51-1.7l-21.77-36.55-10.46 12.33v22.96c0 1.18-.32 2.08-.97 2.7-.64.63-1.57.94-2.78.94-1.21 0-2.14-.31-2.79-.94-.64-.62-.97-1.52-.97-2.7v-67.86c0-1.18.32-2.08.97-2.7.64-.63 1.57-.94 2.79-.94 1.21 0 2.14.31 2.78.94.64.63.97 1.53.97 2.7v33.59l30.58-36.32c.68-.72 1.5-1.08 2.44-1.08 1.21 0 2.16.34 2.84 1.02.68.68 1.02 1.52 1.02 2.5 0 1.14-.38 2.1-1.14 2.9l-20.23 23.93 23.36 39.5c.43.72.64 1.41.64 2.05z" style="fill:#2d2e83"/><linearGradient id="a" x1="312.404" x2="312.404" y1="310.678" y2="388.55" gradientUnits="userSpaceOnUse"><stop offset="0" style="stop-color:#914694"/><stop offset="0" style="stop-color:#954694"/><stop offset="0" style="stop-color:#974694"/><stop offset=".168" style="stop-color:#944593"/><stop offset=".345" style="stop-color:#8b4292"/><stop offset=".526" style="stop-color:#7a3d8f"/><stop offset=".711" style="stop-color:#62378b"/><stop offset=".896" style="stop-color:#443286"/><stop offset="1" style="stop-color:#2d2e83"/><stop offset="1" style="stop-color:#000"/></linearGradient><path d="M340.55 362.27c-.08 9.98-4.01 18.14-13.13 23.01-16.55 8.87-35.8-1.28-38.32-18.94-.24-1.67-.28-3.33-.28-5v-31.58c-2.8-1.89-4.63-5.05-4.63-8.63 0-5.78 4.76-10.46 10.63-10.46 5.85 0 10.61 4.68 10.61 10.46 0 3.72-1.98 6.98-4.97 8.83-.02 11.03-.02 22.1.02 33.14.02 5.29 2.24 9.59 7.04 12.2 7.66 4.17 19.81 1.35 21.24-10.46.15-1.24.23-2.5.23-3.74v-43.49c0-4.26 1.88-6.11 6.17-6.11 2.65 0 4.7 1.61 5.19 4.18.17.81.23 1.67.23 2.48.01 14.71.09 29.41-.03 44.11z" style="fill:url(#a)"/><linearGradient id="b" x1="380.04" x2="380.04" y1="311.546" y2="387.717" gradientUnits="userSpaceOnUse"><stop offset="0" style="stop-color:#914694"/><stop offset="0" style="stop-color:#954694"/><stop offset="0" style="stop-color:#974694"/><stop offset=".168" style="stop-color:#944593"/><stop offset=".345" style="stop-color:#8b4292"/><stop offset=".526" style="stop-color:#7a3d8f"/><stop offset=".711" style="stop-color:#62378b"/><stop offset=".896" style="stop-color:#443286"/><stop offset="1" style="stop-color:#2d2e83"/><stop offset="1" style="stop-color:#000"/></linearGradient><path d="M355.22 349.55c0-10.35-.01-20.7.01-31.05 0-.88.06-1.78.23-2.65.5-2.57 2.33-4.18 4.99-4.2 6.69-.05 13.4-.23 20.08.05 12.44.52 23.38 11.38 23.93 23.62.44 9.82.64 19.66-.08 29.46-.72 9.83-8.17 19.18-19.57 22.05-2.33.59-4.71.83-7.1.85-5.26.05-10.52.03-15.78.01-4.65-.02-6.72-2.06-6.72-6.63 0-10.5.01-21.01.01-31.51zm11.63 0c0 8.36.02 16.73-.02 25.09-.01 1.17.27 1.7 1.6 1.67 3.29-.08 6.59.01 9.88-.04 8.41-.13 14.77-6.46 14.79-14.74.02-8 .05-16-.01-23.99-.05-8.09-6.47-14.39-14.68-14.49-3.19-.04-6.38.07-9.56-.05-1.67-.06-2.04.55-2.03 2.09.06 8.15.03 16.3.03 24.46z" style="fill:url(#b)"/><linearGradient id="c" x1="437.013" x2="437.013" y1="310.684" y2="390.227" gradientUnits="userSpaceOnUse"><stop offset="0" style="stop-color:#914694"/><stop offset="0" style="stop-color:#954694"/><stop offset="0" style="stop-color:#974694"/><stop offset=".168" style="stop-color:#944593"/><stop offset=".345" style="stop-color:#8b4292"/><stop offset=".526" style="stop-color:#7a3d8f"/><stop offset=".711" style="stop-color:#62378b"/><stop offset=".896" style="stop-color:#443286"/><stop offset="1" style="stop-color:#2d2e83"/><stop offset="1" style="stop-color:#000"/></linearGradient><path d="M461.82 379.79c0 5.78-4.76 10.44-10.61 10.44-2.52 0-4.83-.85-6.64-2.3-1.37.28-2.78.44-4.25.52-7.09.33-13.47-1.3-18.91-5.96-5.79-4.96-8.82-11.29-9.12-18.83-.17-4.65-.02-9.29-.02-13.96 0-4.7-.08-9.4 0-14.11.19-12 9.01-22.4 20.99-24.44 9.5-1.61 18 .91 25.38 7 2.14 1.78 2.56 4.67 1.13 6.96-1.54 2.46-4.38 3.41-7.05 2.33-1.45-.57-2.65-1.54-3.95-2.35-4.21-2.67-8.84-3.54-13.73-2.65-6.13 1.11-10.95 6.52-11.06 12.68-.17 9.63-.17 19.25 0 28.86.13 7.13 6.15 12.76 13.38 13.05 1.26.06 2.46 0 3.65-.15 1.28-4.37 5.36-7.55 10.22-7.55 5.83.01 10.59 4.68 10.59 10.46z" style="fill:url(#c)"/><radialGradient id="d" cx="174.142" cy="307.272" r="86.386" gradientUnits="userSpaceOnUse" spreadMethod="reflect"><stop offset="0" style="stop-color:#914694"/><stop offset="0" style="stop-color:#954694"/><stop offset="0" style="stop-color:#974694"/><stop offset=".168" style="stop-color:#944593"/><stop offset=".345" style="stop-color:#8b4292"/><stop offset=".526" style="stop-color:#7a3d8f"/><stop offset=".711" style="stop-color:#62378b"/><stop offset=".896" style="stop-color:#443286"/><stop offset="1" style="stop-color:#2d2e83"/><stop offset="1" style="stop-color:#000"/></radialGradient><path d="M265.89 307.55c-.27.47-.76.75-1.3.75h-75.63v40.19h21.39c.82 0 1.49.67 1.49 1.49v13.23c0 .82-.67 1.49-1.49 1.49h-71.22c-.82 0-1.49-.67-1.49-1.49v-12.84c0-.82.67-1.49 1.49-1.49h17.8v-53.51c0-.48.23-.93.61-1.21l4.16-3.03v-12.97c0-.44.19-.85.52-1.13l3.66-3.13v-14.27c0-.82.67-1.49 1.49-1.49s1.49.67 1.49 1.49v6l4.11-3.43c.31-.26.71-.38 1.12-.34.4.04.76.24 1.01.56l4.38 5.57c.21.26.32.59.32.93v5.18l3.83 2.64c.41.28.64.74.64 1.23v12.91c1.11.54 1.88 1.69 1.88 3.02 0 1.86-1.51 3.37-3.37 3.37s-3.37-1.5-3.37-3.37c0-1.11.54-2.1 1.37-2.7.16-.12.33-.22.51-.31v-12.13l-3.83-2.64c-.41-.27-.64-.73-.64-1.23v-5.45l-3.11-3.95-4.85 4.04v5.07c0 .44-.19.85-.52 1.13l-3.66 3.13v13.04c0 .48-.23.93-.61 1.21l-4.16 3.03v54.25c0 .83-.66 1.49-1.49 1.49h-17.8v9.85h68.24v-10.25h-21.39c-.82 0-1.49-.67-1.49-1.49v-43.17c0-.82.67-1.49 1.49-1.49h74.54l-43.76-75.5h-88.06l-44.77 79.2 44.49 75.71h88.49l5.37-8.96h-83.86c-.12.24-.27.47-.44.67-.61.73-1.53 1.2-2.57 1.2-1.86 0-3.37-1.51-3.37-3.37s1.5-3.37 3.37-3.37c1.33 0 2.48.77 3.02 1.88h86.5c.54 0 1.03.29 1.3.76.27.47.26 1.04-.02 1.5l-7.16 11.94c-.27.45-.76.73-1.28.73h-90.19c-.53 0-1.01-.28-1.28-.74L82.4 309.79c-.27-.46-.27-1.03-.01-1.49l45.62-80.7c.26-.47.76-.76 1.3-.76h89.79c.53 0 1.03.29 1.3.75l2.488 4.292 43.002 74.188c.26.45.26 1.02 0 1.48Z" style="fill:url(#d)"/><linearGradient id="e" x1="214.786" x2="174.876" y1="242.39" y2="282.3" gradientUnits="userSpaceOnUse"><stop offset="0" style="stop-color:#914694"/><stop offset=".199" style="stop-color:#954694"/><stop offset=".274" style="stop-color:#974694"/><stop offset=".276" style="stop-color:#974694"/><stop offset=".385" style="stop-color:#783c8e"/><stop offset=".496" style="stop-color:#5f378a"/><stop offset=".611" style="stop-color:#4a3387"/><stop offset=".731" style="stop-color:#3b3085"/><stop offset=".857" style="stop-color:#312f84"/><stop offset="1" style="stop-color:#2d2e83"/><stop offset="1" style="stop-color:#000"/></linearGradient><path d="M245.91 294.35c0 1.86-1.5 3.37-3.37 3.37a3.372 3.372 0 0 1-2.83-5.2l-30.21-50.97h-74.75c-.82 0-1.49-.67-1.49-1.49s.67-1.49 1.49-1.49h75.6c.53 0 1.02.28 1.28.73l30.65 51.69c.09-.01.17-.01.26-.01 1.86 0 3.37 1.51 3.37 3.37z" style="fill:url(#e)"/><linearGradient id="f" x1="151.896" x2="151.896" y1="309.791" y2="248.234" gradientUnits="userSpaceOnUse"><stop offset="0" style="stop-color:#914694"/><stop offset="0" style="stop-color:#954694"/><stop offset="0" style="stop-color:#974694"/><stop offset=".168" style="stop-color:#944593"/><stop offset=".345" style="stop-color:#8b4292"/><stop offset=".526" style="stop-color:#7a3d8f"/><stop offset=".711" style="stop-color:#62378b"/><stop offset=".896" style="stop-color:#443286"/><stop offset="1" style="stop-color:#2d2e83"/><stop offset="1" style="stop-color:#000"/></linearGradient><path d="M207.14 251.6a3.372 3.372 0 0 1-6.39 1.5h-68.14l-33.19 55.97c-.27.47-.77.73-1.28.73a1.5 1.5 0 0 1-1.29-2.25l33.62-56.7c.27-.45.76-.73 1.29-.73h68.98a3.37 3.37 0 0 1 3.02-1.87 3.344 3.344 0 0 1 3.38 3.35z" style="fill:url(#f)"/><linearGradient id="g" x1="158.392" x2="118.815" y1="321.86" y2="282.283" gradientUnits="userSpaceOnUse"><stop offset="0" style="stop-color:#914694"/><stop offset="0" style="stop-color:#954694"/><stop offset="0" style="stop-color:#974694"/><stop offset=".168" style="stop-color:#944593"/><stop offset=".345" style="stop-color:#8b4292"/><stop offset=".526" style="stop-color:#7a3d8f"/><stop offset=".711" style="stop-color:#62378b"/><stop offset=".896" style="stop-color:#443286"/><stop offset="1" style="stop-color:#2d2e83"/><stop offset="1" style="stop-color:#000"/></linearGradient><path d="m151.38 264.77-.27 11.45c-.02.82-.71 1.49-1.53 1.46a1.5 1.5 0 0 1-1.46-1.52l.23-9.92h-9.02l-25.57 44.02 18.69 28.9c.19-.03.37-.05.56-.05 1.86 0 3.37 1.51 3.37 3.37s-1.5 3.37-3.37 3.37a3.372 3.372 0 0 1-2.99-4.93l-19.27-29.81c-.3-.47-.32-1.07-.04-1.56l26.46-45.56c.27-.46.76-.74 1.29-.74h11.41c.41 0 .79.16 1.07.45.3.28.45.67.44 1.07z" style="fill:url(#g)"/><linearGradient id="h" x1="140.697" x2="140.697" y1="292.856" y2="316.669" gradientUnits="userSpaceOnUse"><stop offset="0" style="stop-color:#914694"/><stop offset="0" style="stop-color:#8d4593"/><stop offset="0" style="stop-color:#824191"/><stop offset="0" style="stop-color:#6f3b8d"/><stop offset="0" style="stop-color:#543589"/><stop offset="0" style="stop-color:#332f84"/><stop offset=".99" style="stop-color:#974694"/><stop offset=".991" style="stop-color:#924493"/><stop offset=".993" style="stop-color:#834090"/><stop offset=".996" style="stop-color:#6a398c"/><stop offset=".999" style="stop-color:#463287"/><stop offset="1" style="stop-color:#2d2e83"/><stop offset="1" style="stop-color:#000"/></linearGradient><path d="M150.57 313.3c0 1.86-1.51 3.37-3.37 3.37s-3.37-1.51-3.37-3.37c0-.54.13-1.04.35-1.49l-13.03-16.54c-.51-.64-.4-1.58.24-2.1.64-.51 1.59-.4 2.1.25l13.06 16.56a3.387 3.387 0 0 1 4.02 3.32z" style="fill:url(#h)"/><linearGradient id="i" x1="208.645" x2="208.645" y1="290.058" y2="276.226" gradientUnits="userSpaceOnUse"><stop offset="0" style="stop-color:#914694"/><stop offset="0" style="stop-color:#954694"/><stop offset="0" style="stop-color:#974694"/><stop offset=".168" style="stop-color:#944593"/><stop offset=".345" style="stop-color:#8b4292"/><stop offset=".526" style="stop-color:#7a3d8f"/><stop offset=".711" style="stop-color:#62378b"/><stop offset=".896" style="stop-color:#443286"/><stop offset="1" style="stop-color:#2d2e83"/><stop offset="1" style="stop-color:#000"/></linearGradient><path d="M214.2 286.69c0 1.86-1.51 3.37-3.37 3.37a3.365 3.365 0 0 1-3.02-4.86l-4.47-6.65c-.46-.69-.27-1.61.41-2.07.69-.46 1.61-.28 2.07.41l4.36 6.49c.21-.04.43-.06.65-.06 1.86 0 3.37 1.51 3.37 3.37z" style="fill:url(#i)"/><linearGradient id="j" x1="208.311" x2="194.789" y1="323.909" y2="323.909" gradientUnits="userSpaceOnUse"><stop offset="0" style="stop-color:#914694"/><stop offset="0" style="stop-color:#954694"/><stop offset="0" style="stop-color:#974694"/><stop offset=".168" style="stop-color:#944593"/><stop offset=".345" style="stop-color:#8b4292"/><stop offset=".526" style="stop-color:#7a3d8f"/><stop offset=".711" style="stop-color:#62378b"/><stop offset=".896" style="stop-color:#443286"/><stop offset="1" style="stop-color:#2d2e83"/><stop offset="1" style="stop-color:#000"/></linearGradient><path d="M208.31 317.98c0 1.86-1.5 3.37-3.37 3.37-.1 0-.2-.01-.29-.02l-7.11 11.17c-.28.45-.76.69-1.26.69-.27 0-.55-.08-.8-.23a1.5 1.5 0 0 1-.46-2.06l7.08-11.12c-.33-.52-.53-1.14-.53-1.8 0-1.86 1.5-3.37 3.37-3.37 1.87.01 3.37 1.52 3.37 3.37z" style="fill:url(#j)"/><linearGradient id="k" x1="203.995" x2="222.489" y1="327.948" y2="327.948" gradientUnits="userSpaceOnUse"><stop offset="0" style="stop-color:#914694"/><stop offset="0" style="stop-color:#954694"/><stop offset="0" style="stop-color:#974694"/><stop offset=".168" style="stop-color:#944593"/><stop offset=".345" style="stop-color:#8b4292"/><stop offset=".526" style="stop-color:#7a3d8f"/><stop offset=".711" style="stop-color:#62378b"/><stop offset=".896" style="stop-color:#443286"/><stop offset="1" style="stop-color:#2d2e83"/><stop offset="1" style="stop-color:#000"/></linearGradient><path d="m222.25 317.49-11.92 18.26a3.372 3.372 0 0 1-2.96 4.98c-1.86 0-3.37-1.5-3.37-3.37s1.51-3.37 3.37-3.37c.18 0 .35.01.53.04l11.86-18.17c.45-.69 1.38-.88 2.07-.43.67.44.86 1.36.42 2.06z" style="fill:url(#k)"/><linearGradient id="l" x1="218.922" x2="249.792" y1="328.515" y2="328.515" gradientUnits="userSpaceOnUse"><stop offset="0" style="stop-color:#914694"/><stop offset="0" style="stop-color:#954694"/><stop offset="0" style="stop-color:#974694"/><stop offset=".168" style="stop-color:#944593"/><stop offset=".345" style="stop-color:#8b4292"/><stop offset=".526" style="stop-color:#7a3d8f"/><stop offset=".711" style="stop-color:#62378b"/><stop offset=".896" style="stop-color:#443286"/><stop offset="1" style="stop-color:#2d2e83"/><stop offset="1" style="stop-color:#000"/></linearGradient><path d="m249.56 318.16-11.06 17.76c.35.53.56 1.17.56 1.86 0 1.86-1.5 3.37-3.37 3.37-1.86 0-3.37-1.51-3.37-3.37a3.365 3.365 0 0 1 3.6-3.36l9.7-15.57h-11.68l-12.25 19.28c-.44.7-1.36.9-2.06.46-.69-.44-.9-1.36-.46-2.06l12.69-19.97c.27-.43.75-.69 1.26-.69h15.2c.54 0 1.04.3 1.31.77.24.48.23 1.06-.07 1.52z" style="fill:url(#l)"/><linearGradient id="m" x1="183.306" x2="229.547" y1="279.311" y2="279.311" gradientUnits="userSpaceOnUse"><stop offset="0" style="stop-color:#914694"/><stop offset="0" style="stop-color:#954694"/><stop offset="0" style="stop-color:#974694"/><stop offset=".168" style="stop-color:#944593"/><stop offset=".345" style="stop-color:#8b4292"/><stop offset=".526" style="stop-color:#7a3d8f"/><stop offset=".711" style="stop-color:#62378b"/><stop offset=".896" style="stop-color:#443286"/><stop offset="1" style="stop-color:#2d2e83"/><stop offset="1" style="stop-color:#000"/></linearGradient><path d="M229.34 296.53c-.27.45-.76.73-1.28.73h-33.42c-.82 0-1.49-.67-1.49-1.49v-16.91c0-.82.67-1.49 1.49-1.49s1.49.67 1.49 1.49v15.42h29.42l-15.28-28.05H189.7a3.347 3.347 0 0 1-3.02 1.87c-1.86 0-3.37-1.5-3.37-3.37 0-1.86 1.5-3.37 3.37-3.37 1.33 0 2.47.76 3.02 1.87h21.45c.55 0 1.05.3 1.31.78l16.91 31.04c.24.47.24 1.03-.03 1.48z" style="fill:url(#m)"/><linearGradient id="n" x1="152.11" x2="136.819" y1="291.967" y2="283.139" gradientUnits="userSpaceOnUse"><stop offset="0" style="stop-color:#914694"/><stop offset="0" style="stop-color:#954694"/><stop offset="0" style="stop-color:#974694"/><stop offset=".168" style="stop-color:#944593"/><stop offset=".345" style="stop-color:#8b4292"/><stop offset=".526" style="stop-color:#7a3d8f"/><stop offset=".711" style="stop-color:#62378b"/><stop offset=".896" style="stop-color:#443286"/><stop offset="1" style="stop-color:#2d2e83"/><stop offset="1" style="stop-color:#000"/></linearGradient><path d="M149.92 295.53c-.27.21-.59.31-.91.31-.45 0-.89-.2-1.18-.59l-6.62-8.62c-.2.04-.4.05-.6.05-1.86 0-3.37-1.51-3.37-3.37s1.5-3.37 3.37-3.37c1.86 0 3.37 1.51 3.37 3.37 0 .55-.13 1.07-.37 1.53l6.59 8.59c.5.66.38 1.6-.28 2.1z" style="fill:url(#n)"/><linearGradient id="o" x1="154.112" x2="119.536" y1="332.046" y2="312.084" gradientUnits="userSpaceOnUse"><stop offset="0" style="stop-color:#914694"/><stop offset="0" style="stop-color:#954694"/><stop offset="0" style="stop-color:#974694"/><stop offset=".168" style="stop-color:#944593"/><stop offset=".345" style="stop-color:#8b4292"/><stop offset=".526" style="stop-color:#7a3d8f"/><stop offset=".711" style="stop-color:#62378b"/><stop offset=".896" style="stop-color:#443286"/><stop offset="1" style="stop-color:#2d2e83"/><stop offset="1" style="stop-color:#000"/></linearGradient><path d="M148.97 340.65c-.26.18-.55.26-.84.26-.48 0-.94-.23-1.24-.66l-20.13-29.67c-.18.03-.36.05-.55.05-1.86 0-3.37-1.5-3.37-3.37s1.51-3.37 3.37-3.37 3.37 1.5 3.37 3.37c0 .57-.14 1.11-.39 1.58l20.18 29.73c.46.69.28 1.62-.4 2.08z" style="fill:url(#o)"/><linearGradient id="p" x1="99.813" x2="131.07" y1="341.528" y2="341.528" gradientUnits="userSpaceOnUse"><stop offset="0" style="stop-color:#914694"/><stop offset="0" style="stop-color:#954694"/><stop offset="0" style="stop-color:#974694"/><stop offset=".168" style="stop-color:#944593"/><stop offset=".345" style="stop-color:#8b4292"/><stop offset=".526" style="stop-color:#7a3d8f"/><stop offset=".711" style="stop-color:#62378b"/><stop offset=".896" style="stop-color:#443286"/><stop offset="1" style="stop-color:#2d2e83"/><stop offset="1" style="stop-color:#000"/></linearGradient><path d="M130.35 365.68c-.24.15-.51.22-.78.22-.5 0-1-.26-1.28-.72l-25.32-41.72h-.02a3.15 3.15 0 1 1 3.15-3.15c0 .63-.19 1.22-.51 1.71l25.26 41.61c.43.7.21 1.62-.5 2.05z" style="fill:url(#p)"/><linearGradient id="q" x1="218.924" x2="231.889" y1="355.096" y2="355.096" gradientUnits="userSpaceOnUse"><stop offset="0" style="stop-color:#914694"/><stop offset="0" style="stop-color:#954694"/><stop offset="0" style="stop-color:#974694"/><stop offset=".168" style="stop-color:#944593"/><stop offset=".345" style="stop-color:#8b4292"/><stop offset=".526" style="stop-color:#7a3d8f"/><stop offset=".711" style="stop-color:#62378b"/><stop offset=".896" style="stop-color:#443286"/><stop offset="1" style="stop-color:#2d2e83"/><stop offset="1" style="stop-color:#000"/></linearGradient><path d="M231.89 349.57c0 1.86-1.5 3.37-3.37 3.37-.11 0-.22-.01-.33-.02l-6.51 10.38a1.495 1.495 0 1 1-2.53-1.59l6.5-10.38a3.365 3.365 0 0 1 2.87-5.13c1.86 0 3.37 1.5 3.37 3.37z" style="fill:url(#q)"/><linearGradient id="r" x1="261.974" x2="230.54" y1="341.865" y2="341.865" gradientUnits="userSpaceOnUse"><stop offset="0" style="stop-color:#914694"/><stop offset="0" style="stop-color:#954694"/><stop offset="0" style="stop-color:#974694"/><stop offset=".168" style="stop-color:#944593"/><stop offset=".345" style="stop-color:#8b4292"/><stop offset=".526" style="stop-color:#7a3d8f"/><stop offset=".711" style="stop-color:#62378b"/><stop offset=".896" style="stop-color:#443286"/><stop offset="1" style="stop-color:#2d2e83"/><stop offset="1" style="stop-color:#000"/></linearGradient><path d="m261.76 319.41-25.11 41.85c.39.55.62 1.22.62 1.95 0 1.86-1.5 3.37-3.37 3.37-1.86 0-3.37-1.51-3.37-3.37s1.5-3.37 3.37-3.37c.04 0 .08 0 .11.01l25.18-41.97c.42-.7 1.34-.94 2.05-.51.72.42.94 1.34.52 2.04z" style="fill:url(#r)"/></svg>