<?xml version="1.0" encoding="UTF-8" standalone="no"?>
<svg
   version="1.1"
   x="0px"
   y="0px"
   viewBox="0 0 27.819 96.483917"
   enable-background="new 0 0 100 100"
   xml:space="preserve"
   id="svg16"
   sodipodi:docname="lanyard.svg"
   width="27.819"
   height="96.483917"
   inkscape:version="1.3.2 (091e20e, 2023-11-25)"
   xmlns:inkscape="http://www.inkscape.org/namespaces/inkscape"
   xmlns:sodipodi="http://sodipodi.sourceforge.net/DTD/sodipodi-0.dtd"
   xmlns="http://www.w3.org/2000/svg"
   xmlns:svg="http://www.w3.org/2000/svg"><defs
     id="defs16" /><sodipodi:namedview
     id="namedview16"
     pagecolor="#ffffff"
     bordercolor="#000000"
     borderopacity="0.25"
     inkscape:showpageshadow="2"
     inkscape:pageopacity="0.0"
     inkscape:pagecheckerboard="0"
     inkscape:deskcolor="#d1d1d1"
     inkscape:zoom="1.888"
     inkscape:cx="15.095339"
     inkscape:cy="60.381356"
     inkscape:window-width="1312"
     inkscape:window-height="449"
     inkscape:window-x="0"
     inkscape:window-y="38"
     inkscape:window-maximized="0"
     inkscape:current-layer="svg16" /><path
     fill="none"
     d="m 16.266,77.667 c 0,0.423 -1.268,0.536 -2.018,0.536 -0.749,0 -2.018,-0.113 -2.018,-0.536 0,-0.423 1.268,-0.535 2.018,-0.535 0.75,-0.001 2.018,0.112 2.018,0.535 z"
     id="path1" /><path
     fill="none"
     d="m 14.248,70.882 c 0.019,-0.001 0.099,-0.003 0.22,-0.003 0.39,0 0.984,0.025 1.49,0.148 0.17,-0.246 0.271,-0.565 0.275,-0.907 h -3.869 c 0.003,0.332 0.099,0.644 0.26,0.887 0.486,-0.106 1.037,-0.128 1.405,-0.128 0.12,0 0.2,0.002 0.219,0.003 z"
     id="path2" /><path
     fill="none"
     d="m 12.447,77.669 c 0.033,0.107 0.681,0.316 1.801,0.316 0.84,0 1.414,-0.117 1.663,-0.223 0.083,-0.035 0.13,-0.069 0.138,-0.097 -0.033,-0.107 -0.681,-0.316 -1.801,-0.316 -1.119,0 -1.767,0.208 -1.801,0.32 z"
     id="path3" /><path
     fill="none"
     d="m 11.99,73.652 c -0.032,0.12 -0.048,0.249 -0.048,0.38 0,0.518 0.252,0.948 0.58,1.026 -0.043,-0.731 -0.395,-1.196 -0.399,-1.201 -0.048,-0.067 -0.092,-0.135 -0.133,-0.205 z"
     id="path4" /><path
     d="m 12.23,77.667 c 0,0.423 1.268,0.536 2.018,0.536 0.749,0 2.018,-0.113 2.018,-0.536 0,-0.423 -1.268,-0.535 -2.018,-0.535 -0.749,-0.001 -2.018,0.112 -2.018,0.535 z m 3.819,-0.003 c -0.008,0.028 -0.055,0.062 -0.138,0.097 -0.249,0.106 -0.823,0.223 -1.663,0.223 -1.119,0 -1.767,-0.209 -1.801,-0.316 0.033,-0.112 0.681,-0.32 1.801,-0.32 1.12,0.001 1.767,0.209 1.801,0.316 z"
     id="path5" /><path
     d="m 12.363,70.12 h 3.869 c -0.003,0.342 -0.105,0.661 -0.275,0.907 0.075,0.018 0.149,0.038 0.219,0.061 0.173,-0.277 0.273,-0.621 0.273,-0.986 v -0.2 h -4.304 v 0.2 c 0,0.353 0.095,0.688 0.258,0.96 0.071,-0.021 0.145,-0.04 0.22,-0.056 -0.16,-0.242 -0.256,-0.554 -0.26,-0.886 z"
     id="path6" /><path
     d="m 16.482,76.869 c -0.232,-0.21 -0.419,-0.699 -0.421,-0.704 -0.11,-0.291 -0.171,-0.585 -0.18,-0.878 0.491,-0.012 0.888,-0.57 0.888,-1.255 0,-0.248 -0.052,-0.488 -0.149,-0.693 l -0.025,-0.054 c 0.391,-0.977 0.097,-1.88 0.083,-1.92 l -0.011,-0.032 -0.027,-0.02 c -0.022,-0.017 -0.047,-0.032 -0.071,-0.047 -0.06,-0.038 -0.126,-0.072 -0.197,-0.103 -0.062,-0.027 -0.127,-0.053 -0.196,-0.075 -0.07,-0.023 -0.144,-0.043 -0.219,-0.061 -0.506,-0.123 -1.101,-0.148 -1.49,-0.148 -0.121,0 -0.201,0.003 -0.22,0.003 -0.019,-0.001 -0.099,-0.003 -0.22,-0.003 -0.368,0 -0.918,0.022 -1.405,0.128 -0.075,0.016 -0.149,0.035 -0.22,0.056 -0.104,0.03 -0.202,0.065 -0.293,0.106 -0.07,0.031 -0.135,0.066 -0.194,0.105 -0.02,0.013 -0.042,0.026 -0.06,0.04 l -0.027,0.02 -0.011,0.032 c -0.013,0.04 -0.307,0.941 0.082,1.917 l -0.026,0.056 c -0.098,0.206 -0.149,0.446 -0.149,0.694 0,0.686 0.398,1.245 0.89,1.255 -0.01,0.293 -0.07,0.588 -0.18,0.878 -0.002,0.005 -0.189,0.494 -0.418,0.701 -0.018,0.016 -0.448,0.39 -0.316,1.141 0.001,0.006 0.081,0.484 0.691,0.635 v -0.135 c 0,-0.031 0.003,-0.06 0.01,-0.088 -0.424,-0.123 -0.483,-0.43 -0.486,-0.448 -0.111,-0.625 0.228,-0.928 0.244,-0.942 0.271,-0.245 0.47,-0.765 0.478,-0.787 0.133,-0.351 0.199,-0.709 0.196,-1.064 -0.009,-0.874 -0.43,-1.431 -0.446,-1.451 -0.087,-0.121 -0.163,-0.252 -0.227,-0.389 -0.4,-0.852 -0.195,-1.698 -0.146,-1.872 0.021,-0.014 0.044,-0.027 0.067,-0.04 0.069,-0.04 0.147,-0.075 0.231,-0.106 0.071,-0.026 0.146,-0.049 0.224,-0.069 0.078,-0.02 0.159,-0.039 0.242,-0.054 0.466,-0.087 0.976,-0.101 1.25,-0.101 0.133,0 0.214,0.003 0.215,0.003 h 0.004 0.004 c 0.001,0 0.082,-0.003 0.215,-0.003 0.29,0 0.846,0.016 1.334,0.118 0.083,0.017 0.163,0.037 0.24,0.059 0.046,0.014 0.091,0.028 0.134,0.044 0.084,0.03 0.161,0.065 0.23,0.104 0.026,0.015 0.053,0.03 0.076,0.046 0.049,0.174 0.254,1.02 -0.147,1.872 -0.064,0.136 -0.14,0.267 -0.225,0.385 -0.018,0.023 -0.439,0.58 -0.448,1.454 -0.004,0.355 0.062,0.713 0.196,1.064 0.008,0.022 0.208,0.542 0.48,0.789 0.014,0.013 0.353,0.315 0.242,0.942 -0.003,0.015 -0.054,0.285 -0.408,0.421 0.002,0.013 0.004,0.026 0.004,0.04 v 0.187 c 0.544,-0.169 0.618,-0.609 0.619,-0.612 0.135,-0.753 -0.295,-1.128 -0.311,-1.141 z M 11.99,73.652 c 0.041,0.07 0.085,0.138 0.133,0.205 0.004,0.005 0.355,0.47 0.399,1.201 -0.328,-0.078 -0.58,-0.508 -0.58,-1.026 0,-0.131 0.016,-0.26 0.048,-0.38 z m 4.383,0.202 c 0.046,-0.065 0.09,-0.132 0.131,-0.201 0.032,0.12 0.048,0.248 0.048,0.38 0,0.518 -0.252,0.948 -0.58,1.026 0.044,-0.729 0.396,-1.197 0.401,-1.205 z"
     id="path7" /><g
     id="g9"
     transform="translate(-34.776,-2.115)"><path
       d="m 50.755,79.98 h 0.065 l -0.177,9.321 -3.378,-0.008 -0.041,-9.312 h 0.135 c -0.02,-0.013 -0.038,-0.028 -0.056,-0.045 l -0.17,-0.17 h -0.128 l 0.043,9.742 3.807,0.01 0.185,-9.752 h -0.072 c -0.07,0.07 -0.142,0.142 -0.213,0.214 z"
       id="path8" /><path
       d="m 49.794,82.417 c 0,-0.43 -0.353,-0.78 -0.787,-0.78 -0.434,0 -0.787,0.35 -0.787,0.78 0,0.43 0.353,0.78 0.787,0.78 0.434,0 0.787,-0.35 0.787,-0.78 z m -1.357,0 c 0,-0.311 0.256,-0.564 0.57,-0.564 0.314,0 0.57,0.253 0.57,0.564 0,0.311 -0.256,0.564 -0.57,0.564 -0.314,0.001 -0.57,-0.253 -0.57,-0.564 z"
       id="path9" /></g><g
     id="g10"
     transform="translate(-34.776,-2.115)"><path
       d="m 48.892,66.781 c -0.434,0 -0.787,-0.353 -0.787,-0.787 0,-0.434 0.353,-0.787 0.787,-0.787 0.434,0 0.787,0.353 0.787,0.787 0,0.433 -0.353,0.787 -0.787,0.787 z m 0,-1.357 c -0.314,0 -0.57,0.256 -0.57,0.57 0,0.314 0.256,0.57 0.57,0.57 0.314,0 0.57,-0.256 0.57,-0.57 0,-0.315 -0.256,-0.57 -0.57,-0.57 z"
       id="path10" /></g><path
     d="m 24.174,0.001 v 0 0 L 24.173,0 24.174,10e-4 3.654,0 V 10e-4 L 0,6.635 12.138,64.299 12.137,68.306 H 16.34 V 64.292 L 16.455,63.673 27.811,6.671 27.819,6.632 Z M 24.131,0.218 23.24,4.802 H 4.589 L 3.697,0.218 Z M 13.944,52.849 4.632,5.019 H 23.198 L 14.13,51.672 Z M 3.556,0.63 13.825,53.376 13.861,53.369 12.229,63.682 0.229,6.669 Z m 12.684,63.002 -0.119,0.64 v 3.817 H 12.353 V 64.29 L 14.344,51.709 24.272,0.63 27.59,6.667 Z"
     id="path11" /><g
     id="g14"
     transform="translate(-34.776,-2.115)"><path
       d="m 51.723,94.62 c -0.025,-0.256 -0.228,-0.449 -0.501,-0.477 -0.054,-0.005 -0.109,-0.008 -0.164,-0.005 -0.224,0.011 -0.444,-0.021 -0.663,-0.065 -0.075,-0.015 -0.111,-0.05 -0.13,-0.126 -0.118,-0.47 -0.24,-0.938 -0.361,-1.407 -0.013,-0.051 -0.017,-0.095 0.018,-0.143 0.025,-0.035 0.036,-0.086 0.038,-0.13 0.005,-0.097 0.002,-0.195 0.002,-0.296 0.03,-0.011 0.054,-0.023 0.079,-0.029 0.045,-0.011 0.069,-0.037 0.066,-0.083 -0.005,-0.088 0.048,-0.134 0.116,-0.174 0.229,-0.138 0.437,-0.302 0.615,-0.503 0.29,-0.327 0.463,-0.711 0.547,-1.138 0.09,-0.459 0.068,-0.909 -0.103,-1.348 -0.047,-0.121 -0.105,-0.236 -0.189,-0.334 V 88.36 c 0,0 -0.003,-0.003 -0.007,-0.007 -0.002,-0.003 -0.004,-0.006 -0.007,-0.008 v 0.002 C 51.05,88.321 50.978,88.262 50.88,88.241 v 0.21 c 0.073,0.023 0.15,0.077 0.203,0.154 0.272,0.566 0.266,1.153 0.07,1.751 -0.177,0.539 -0.533,0.928 -1.041,1.226 0,-0.143 0.006,-0.259 -0.002,-0.374 -0.007,-0.099 0.025,-0.165 0.104,-0.229 0.23,-0.184 0.396,-0.417 0.502,-0.694 0.098,-0.255 0.137,-0.519 0.141,-0.789 h -0.144 c 0.005,0.152 -0.011,0.304 -0.043,0.453 -0.075,0.345 -0.233,0.645 -0.502,0.881 -0.039,0.034 -0.093,0.064 -0.142,0.069 -0.104,0.01 -0.211,0.004 -0.316,0.001 -0.072,-0.002 -0.085,-0.02 -0.086,-0.094 -0.001,-0.07 -0.007,-0.141 0,-0.211 0.02,-0.188 -0.081,-0.298 -0.238,-0.361 -0.3,-0.119 -0.602,-0.119 -0.901,0.008 -0.156,0.067 -0.238,0.182 -0.228,0.358 0.005,0.093 0.001,0.186 0.001,0.289 -0.051,0.005 -0.088,0.01 -0.126,0.011 -0.082,0.002 -0.164,-0.002 -0.246,0.004 -0.059,0.004 -0.104,-0.014 -0.148,-0.052 -0.186,-0.162 -0.314,-0.356 -0.406,-0.584 -0.099,-0.245 -0.123,-0.5 -0.14,-0.762 H 47.05 c -0.003,0.109 0.001,0.219 0.016,0.326 0.069,0.477 0.263,0.882 0.649,1.185 0.044,0.034 0.064,0.076 0.063,0.131 -10e-4,0.113 0,0.226 -10e-4,0.34 0,0.025 -0.009,0.05 -0.014,0.083 -0.03,-0.014 -0.052,-0.021 -0.071,-0.033 -0.278,-0.174 -0.519,-0.389 -0.701,-0.663 -0.339,-0.51 -0.45,-1.074 -0.373,-1.676 0.031,-0.247 0.109,-0.482 0.246,-0.693 0.052,-0.075 0.128,-0.099 0.2,-0.102 v -0.233 c -0.115,0.016 -0.173,0.066 -0.173,0.066 -0.003,0.003 -0.005,0.007 -0.008,0.01 -0.234,0.263 -0.355,0.578 -0.404,0.921 -0.082,0.58 0.018,1.129 0.302,1.642 0.204,0.369 0.506,0.643 0.859,0.864 0.078,0.049 0.156,0.09 0.143,0.203 -0.004,0.04 0.027,0.062 0.067,0.068 0.067,0.009 0.077,0.053 0.075,0.11 -0.003,0.074 -0.005,0.149 0,0.223 0.003,0.041 0.01,0.091 0.035,0.119 0.046,0.05 0.035,0.096 0.021,0.151 -0.226,0.882 -0.451,1.763 -0.675,2.645 -0.055,0.216 -0.101,0.434 -0.158,0.649 -0.023,0.085 10e-4,0.147 0.063,0.197 0.158,0.13 0.33,0.238 0.519,0.316 0.092,0.038 0.123,0.016 0.143,-0.087 0.026,-0.142 0.047,-0.285 0.08,-0.426 0.03,-0.125 0.066,-0.25 0.114,-0.369 0.155,-0.389 0.489,-0.608 0.905,-0.601 0.384,0.006 0.714,0.241 0.857,0.62 0.159,0.422 0.23,0.86 0.207,1.311 -0.016,0.313 -0.101,0.605 -0.343,0.822 -0.324,0.29 -0.703,0.368 -1.113,0.23 -0.403,-0.136 -0.631,-0.433 -0.702,-0.848 -0.022,-0.13 -0.024,-0.264 -0.024,-0.397 0,-0.081 -0.024,-0.132 -0.103,-0.162 -0.18,-0.068 -0.346,-0.164 -0.501,-0.278 -0.013,-0.009 -0.025,-0.019 -0.039,-0.026 -0.063,-0.033 -0.106,-0.015 -0.121,0.055 -0.011,0.049 -0.015,0.101 -0.019,0.151 -0.023,0.293 -0.024,0.586 0.049,0.874 0.139,0.543 0.48,0.921 0.97,1.172 0.839,0.431 1.907,0.154 2.435,-0.628 0.206,-0.305 0.292,-0.645 0.305,-1.007 0.013,-0.394 -0.057,-0.778 -0.148,-1.159 -0.024,-0.098 -0.046,-0.196 -0.074,-0.312 0.058,0.007 0.099,0.011 0.14,0.016 0.175,0.021 0.351,0.033 0.524,-0.016 0.308,-0.093 0.483,-0.351 0.451,-0.67 z m -3.294,-4.022 c 0.346,0.055 0.691,0.07 1.044,0.013 v 0.271 c -0.128,0.027 -0.963,0.023 -1.06,-0.005 -10e-4,-0.089 -0.021,-0.18 0.016,-0.279 z m -0.497,1.194 c -0.005,-0.037 -0.012,-0.063 -0.012,-0.089 -0.001,-0.183 -0.001,-0.367 0,-0.55 0,-0.1 0.007,-0.108 0.106,-0.108 0.609,-0.001 1.218,-0.002 1.827,-0.002 0.102,0 0.112,0.012 0.113,0.116 10e-4,0.18 10e-4,0.359 0,0.539 0,0.03 -0.008,0.059 -0.013,0.094 z m 1.675,0.59 c -0.355,0.074 -0.714,0.067 -1.073,0.039 -0.124,-0.01 -0.246,-0.041 -0.368,-0.064 -0.042,-0.008 -0.091,-0.022 -0.094,-0.073 -0.006,-0.076 -0.001,-0.152 -0.001,-0.244 0.586,0.126 1.154,0.137 1.735,-0.005 0.005,0.034 0.013,0.06 0.013,0.086 -0.007,0.215 0.052,0.206 -0.212,0.261 z m 1.075,4.448 c -0.019,0.478 -0.218,0.869 -0.567,1.181 -0.399,0.357 -0.881,0.495 -1.403,0.422 -0.649,-0.091 -1.127,-0.44 -1.39,-1.052 -0.102,-0.237 -0.126,-0.491 -0.123,-0.747 0.001,-0.093 0.01,-0.186 0.016,-0.297 0.163,0.084 0.306,0.153 0.444,0.232 0.025,0.014 0.037,0.065 0.042,0.1 0.015,0.124 0.018,0.25 0.038,0.373 0.134,0.824 1.039,1.291 1.836,0.845 0.401,-0.224 0.569,-0.599 0.6,-1.04 0.034,-0.478 -0.043,-0.943 -0.206,-1.393 -0.155,-0.427 -0.535,-0.713 -0.96,-0.726 -0.494,-0.015 -0.868,0.217 -1.062,0.661 -0.09,0.205 -0.143,0.421 -0.184,0.64 -0.01,0.051 -0.022,0.102 -0.034,0.161 -0.141,-0.056 -0.247,-0.134 -0.357,-0.209 -0.072,-0.049 -0.089,-0.101 -0.067,-0.188 0.272,-1.067 0.54,-2.135 0.809,-3.203 0.007,-0.029 0.023,-0.055 0.036,-0.086 0.534,0.109 1.061,0.106 1.59,0.002 0.015,0.043 0.029,0.075 0.037,0.108 0.256,1.007 0.511,2.014 0.765,3.021 0.101,0.392 0.156,0.789 0.14,1.195 z m 0.889,-2.029 c -0.052,0.209 -0.229,0.36 -0.458,0.368 -0.147,0.005 -0.295,-0.015 -0.443,-0.024 -0.083,-0.005 -0.119,-0.053 -0.137,-0.132 -0.035,-0.16 -0.079,-0.317 -0.119,-0.476 -0.025,-0.101 -0.049,-0.203 -0.078,-0.322 0.041,0.005 0.06,0.006 0.078,0.009 0.23,0.046 0.462,0.07 0.697,0.057 0.05,-0.003 0.101,0.005 0.15,0.016 0.24,0.054 0.369,0.267 0.31,0.504 z"
       id="path12" /><path
       d="m 48.962,93.196 c -0.29,-0.002 -0.53,0.236 -0.532,0.528 -10e-4,0.294 0.24,0.534 0.538,0.535 0.29,0.002 0.522,-0.236 0.522,-0.534 0,-0.297 -0.23,-0.527 -0.528,-0.529 z m -0.006,0.918 c -0.218,-0.004 -0.381,-0.173 -0.38,-0.391 0.002,-0.217 0.173,-0.388 0.386,-0.387 0.219,0.002 0.392,0.18 0.387,0.399 -0.005,0.216 -0.178,0.383 -0.393,0.379 z"
       id="path13" /><path
       d="m 48.965,93.577 c -0.076,-0.001 -0.148,0.071 -0.148,0.149 0,0.074 0.064,0.142 0.138,0.147 0.077,0.005 0.151,-0.063 0.154,-0.143 0.002,-0.077 -0.068,-0.151 -0.144,-0.153 z"
       id="path14" /></g><g
     id="g16"
     transform="translate(-34.776,-2.115)"><path
       d="m 50.901,69.493 v 0.232 c 0.38,0.176 0.657,0.707 0.657,1.332 v 1.07 c 0,0.478 -0.163,0.9 -0.409,1.151 0.071,0.031 0.137,0.065 0.197,0.103 0.262,-0.296 0.43,-0.748 0.43,-1.255 v -1.07 c -0.001,-0.754 -0.374,-1.389 -0.875,-1.563 z"
       id="path15" /><path
       d="m 46.474,71.057 c 0,-0.497 0.175,-0.933 0.438,-1.179 v -0.275 c -0.387,0.26 -0.655,0.814 -0.655,1.454 v 1.07 c 0,0.511 0.171,0.966 0.436,1.262 0.059,-0.038 0.124,-0.073 0.194,-0.105 -0.249,-0.251 -0.413,-0.676 -0.413,-1.157 z"
       id="path16" /></g></svg>
